<svg xmlns="http://www.w3.org/2000/svg" xmlns:xlink="http://www.w3.org/1999/xlink" viewBox="0 0 600 600"><defs><style>      .cls-1 {        fill: #488ecc;      }      .cls-1, .cls-2, .cls-3, .cls-4, .cls-5, .cls-6, .cls-7, .cls-8, .cls-9, .cls-10, .cls-11, .cls-12, .cls-13, .cls-14, .cls-15, .cls-16, .cls-17, .cls-18, .cls-19, .cls-20, .cls-21, .cls-22, .cls-23, .cls-24, .cls-25, .cls-26, .cls-27, .cls-28, .cls-29, .cls-30, .cls-31, .cls-32, .cls-33, .cls-34, .cls-35, .cls-36, .cls-37, .cls-38, .cls-39, .cls-40, .cls-41, .cls-42, .cls-43, .cls-44, .cls-45, .cls-46, .cls-47, .cls-48, .cls-49, .cls-50, .cls-51, .cls-52, .cls-53, .cls-54, .cls-55, .cls-56, .cls-57, .cls-58, .cls-59, .cls-60, .cls-61, .cls-62, .cls-63, .cls-64, .cls-65, .cls-66, .cls-67, .cls-68, .cls-69, .cls-70, .cls-71, .cls-72, .cls-73, .cls-74, .cls-75, .cls-76, .cls-77, .cls-78, .cls-79, .cls-80, .cls-81, .cls-82, .cls-83, .cls-84, .cls-85, .cls-86, .cls-87, .cls-88, .cls-89, .cls-90, .cls-91, .cls-92, .cls-93, .cls-94, .cls-95, .cls-96, .cls-97, .cls-98, .cls-99, .cls-100, .cls-101, .cls-102, .cls-103, .cls-104, .cls-105, .cls-106, .cls-107, .cls-108, .cls-109 {        stroke-width: 0px;      }      .cls-110 {        font-size: 23.3px;      }      .cls-110, .cls-111, .cls-112 {        font-family: Raleway-Bold, Raleway;        font-weight: 700;      }      .cls-110, .cls-107 {        fill: #117bb7;      }      .cls-2 {        fill: #357036;      }      .cls-3 {        fill: #7ea844;      }      .cls-4 {        fill: #3a374c;      }      .cls-5 {        fill: #b488bc;      }      .cls-6 {        fill: #5c9348;      }      .cls-7 {        fill: url(#White_Black-6);      }      .cls-8 {        fill: url(#White_Black-5);      }      .cls-9 {        fill: #f0c7ad;      }      .cls-10 {        fill: #666;      }      .cls-10, .cls-113 {        opacity: .15;      }      .cls-11 {        fill: #f5e0d5;      }      .cls-12 {        fill: #2874eb;      }      .cls-13 {        fill: url(#linear-gradient);      }      .cls-14 {        fill: #e28b4c;      }      .cls-15 {        fill: #672610;      }      .cls-16 {        fill: #8686ea;      }      .cls-17 {        fill: url(#White_Black);      }      .cls-17, .cls-63, .cls-64, .cls-65 {        mix-blend-mode: multiply;      }      .cls-18 {        fill: #a1bc49;      }      .cls-19 {        fill: #f9c764;      }      .cls-20 {        fill: url(#linear-gradient-38);      }      .cls-21 {        fill: url(#linear-gradient-33);      }      .cls-22 {        fill: url(#linear-gradient-29);      }      .cls-23 {        fill: url(#linear-gradient-32);      }      .cls-24 {        fill: url(#linear-gradient-30);      }      .cls-25 {        fill: url(#linear-gradient-31);      }      .cls-26 {        fill: url(#linear-gradient-36);      }      .cls-27 {        fill: url(#linear-gradient-39);      }      .cls-28 {        fill: url(#linear-gradient-34);      }      .cls-29 {        fill: url(#linear-gradient-37);      }      .cls-30 {        fill: url(#linear-gradient-28);      }      .cls-31 {        fill: url(#linear-gradient-25);      }      .cls-32 {        fill: url(#linear-gradient-13);      }      .cls-33 {        fill: url(#linear-gradient-10);      }      .cls-34 {        fill: url(#linear-gradient-17);      }      .cls-35 {        fill: url(#linear-gradient-16);      }      .cls-36 {        fill: url(#linear-gradient-19);      }      .cls-37 {        fill: url(#linear-gradient-15);      }      .cls-38 {        fill: url(#linear-gradient-23);      }      .cls-39 {        fill: url(#linear-gradient-21);      }      .cls-40 {        fill: url(#linear-gradient-18);      }      .cls-41 {        fill: url(#linear-gradient-14);      }      .cls-42 {        fill: url(#linear-gradient-22);      }      .cls-43 {        fill: url(#linear-gradient-20);      }      .cls-44 {        fill: url(#linear-gradient-27);      }      .cls-45 {        fill: url(#linear-gradient-24);      }      .cls-46 {        fill: url(#linear-gradient-26);      }      .cls-47 {        fill: url(#linear-gradient-45);      }      .cls-48 {        fill: url(#linear-gradient-46);      }      .cls-49 {        fill: url(#linear-gradient-44);      }      .cls-50 {        fill: url(#linear-gradient-48);      }      .cls-51 {        fill: url(#linear-gradient-49);      }      .cls-52 {        fill: url(#linear-gradient-47);      }      .cls-53 {        fill: url(#linear-gradient-42);      }      .cls-54 {        fill: url(#linear-gradient-43);      }      .cls-55 {        fill: url(#linear-gradient-40);      }      .cls-56 {        fill: url(#linear-gradient-41);      }      .cls-57 {        fill: url(#linear-gradient-55);      }      .cls-58 {        fill: url(#linear-gradient-53);      }      .cls-59 {        fill: url(#linear-gradient-51);      }      .cls-60 {        fill: url(#linear-gradient-52);      }      .cls-61 {        fill: url(#linear-gradient-50);      }      .cls-62 {        fill: url(#linear-gradient-54);      }      .cls-63 {        fill: url(#White_Black-2);      }      .cls-64 {        fill: url(#White_Black-3);      }      .cls-65 {        fill: url(#White_Black-4);      }      .cls-66 {        fill: #e0ab89;      }      .cls-67 {        fill: #ea8e50;      }      .cls-68 {        fill: #f4d6ae;      }      .cls-69, .cls-112 {        fill: #ff931e;      }      .cls-70 {        fill: #1a1a1a;      }      .cls-71 {        fill: #1caf38;      }      .cls-72 {        fill: #a0a0f9;      }      .cls-111 {        font-size: 22.19px;      }      .cls-111, .cls-76 {        fill: #b25f90;      }      .cls-73 {        fill: #4f8338;      }      .cls-74 {        fill: #17181c;      }      .cls-75 {        fill: #eb9a5b;      }      .cls-77 {        fill: #3a374c;      }      .cls-78 {        fill: #000;        opacity: .31;      }      .cls-79 {        fill: #d8b280;      }      .cls-80 {        fill: #353535;      }      .cls-81 {        fill: #333;      }      .cls-81, .cls-97, .cls-98, .cls-99 {        opacity: .05;      }      .cls-82 {        fill: #cc7aaf;      }      .cls-83 {        fill: #f2f2f2;      }      .cls-84 {        fill: #a2c255;      }      .cls-114 {        opacity: .4;      }      .cls-115 {        opacity: .38;      }      .cls-116 {        opacity: .5;      }      .cls-85 {        fill: #f4cc8f;      }      .cls-117 {        stroke-width: .74px;      }      .cls-117, .cls-118 {        stroke: #fff;        stroke-miterlimit: 10;      }      .cls-117, .cls-118, .cls-105 {        fill: #fff;      }      .cls-86 {        fill: #a16d3c;      }      .cls-87 {        fill: #ededed;      }      .cls-88 {        fill: #565f99;      }      .cls-89 {        fill: url(#linear-gradient-4);      }      .cls-90 {        fill: url(#linear-gradient-2);      }      .cls-91 {        fill: url(#linear-gradient-3);      }      .cls-92 {        fill: url(#linear-gradient-8);      }      .cls-93 {        fill: url(#linear-gradient-9);      }      .cls-94 {        fill: url(#linear-gradient-7);      }      .cls-95 {        fill: url(#linear-gradient-5);      }      .cls-96 {        fill: url(#linear-gradient-6);      }      .cls-97 {        fill: url(#linear-gradient-11);      }      .cls-98 {        fill: url(#linear-gradient-12);      }      .cls-99 {        fill: url(#linear-gradient-35);      }      .cls-100 {        fill: #49508c;      }      .cls-101 {        fill: #2d3870;      }      .cls-119 {        isolation: isolate;      }      .cls-118 {        stroke-width: .2px;      }      .cls-102 {        fill: #106a39;      }      .cls-103 {        fill: #3495d6;      }      .cls-104 {        fill: #e9cfc3;      }      .cls-106 {        fill: #efefef;      }      .cls-108 {        fill: #121728;      }      .cls-109 {        fill: #353347;      }      .cls-112 {        font-size: 22.19px;      }      .cls-120 {        filter: url(#outer-glow-1);      }    </style><linearGradient id="linear-gradient" x1="279.08" y1="-8.18" x2="84.8" y2="215.28" gradientTransform="translate(-10.14 162.26) rotate(-45)" gradientUnits="userSpaceOnUse"><stop offset=".3" stop-color="#cce0f4"></stop><stop offset=".38" stop-color="#d7e6f6"></stop><stop offset=".6" stop-color="#edf4fb"></stop><stop offset=".81" stop-color="#fafcfe"></stop><stop offset=".99" stop-color="#fff"></stop></linearGradient><linearGradient id="linear-gradient-2" x1="-1987.97" y1="2565.03" x2="-2182.35" y2="2788.61" gradientTransform="translate(-205.2 -5531.17) rotate(-60.42) scale(1.43 1.23) skewX(-27.15)" gradientUnits="userSpaceOnUse"><stop offset=".3" stop-color="#cce0f4"></stop><stop offset=".35" stop-color="#d7e6f6"></stop><stop offset=".49" stop-color="#edf4fb"></stop><stop offset=".62" stop-color="#fafcfe"></stop><stop offset=".75" stop-color="#fff"></stop></linearGradient><linearGradient id="linear-gradient-3" x1="-1881.41" y1="2455.77" x2="-2075.8" y2="2679.35" gradientTransform="translate(-14.51 -5453.76) rotate(-60.42) scale(1.43 1.23) skewX(-27.15)" xlink:href="#linear-gradient"></linearGradient><linearGradient id="linear-gradient-4" x1="159.16" y1="517.5" x2="-35.13" y2="740.97" gradientTransform="translate(-164.65 -27.96) rotate(-45.52) skewX(-1.03)" xlink:href="#linear-gradient"></linearGradient><linearGradient id="linear-gradient-5" x1="268.36" y1="408.29" x2="74.08" y2="631.76" gradientTransform="translate(-53.45 18.1) rotate(-45.52) skewX(-1.03)" xlink:href="#linear-gradient"></linearGradient><linearGradient id="linear-gradient-6" x1="439.26" y1="-67.8" x2="-27.94" y2="469.56" gradientTransform="translate(-58.25 212.14) rotate(-45)" xlink:href="#linear-gradient"></linearGradient><linearGradient id="linear-gradient-7" x1="462.33" y1="34.95" x2="319.08" y2="199.72" gradientTransform="translate(38.69 313.06) rotate(-45)" xlink:href="#linear-gradient"></linearGradient><linearGradient id="linear-gradient-8" x1="380.47" y1="119.41" x2="237.22" y2="284.18" gradientTransform="translate(-45.01 279.9) rotate(-45)" xlink:href="#linear-gradient"></linearGradient><linearGradient id="linear-gradient-9" x1="297.58" y1="203.04" x2="154.33" y2="367.8" gradientTransform="translate(-128.42 245.79) rotate(-45)" xlink:href="#linear-gradient"></linearGradient><linearGradient id="linear-gradient-10" x1="216.06" y1="283.81" x2="72.81" y2="448.58" gradientTransform="translate(-209.41 211.81) rotate(-45)" xlink:href="#linear-gradient"></linearGradient><linearGradient id="linear-gradient-11" x1="179.01" y1="570.74" x2="173.57" y2="496.84" gradientUnits="userSpaceOnUse"><stop offset=".37" stop-color="#fff"></stop><stop offset=".54" stop-color="#7c7c7c"></stop><stop offset=".67" stop-color="#232323"></stop><stop offset=".72" stop-color="#000"></stop></linearGradient><linearGradient id="linear-gradient-12" x1="353.29" y1="540.52" x2="353.92" y2="506.78" gradientUnits="userSpaceOnUse"><stop offset=".16" stop-color="#fff"></stop><stop offset=".68" stop-color="#000"></stop></linearGradient><linearGradient id="linear-gradient-13" x1="186.16" y1="158.43" x2="257.64" y2="213.31" gradientUnits="userSpaceOnUse"><stop offset=".28" stop-color="#106a39"></stop><stop offset=".31" stop-color="#1d7339"></stop><stop offset=".41" stop-color="#46913b"></stop><stop offset=".5" stop-color="#65a83d"></stop><stop offset=".6" stop-color="#7cb83e"></stop><stop offset=".69" stop-color="#8ac23f"></stop><stop offset=".76" stop-color="#8fc640"></stop></linearGradient><linearGradient id="linear-gradient-14" x1="220.3" y1="156.62" x2="93.54" y2="205.58" gradientUnits="userSpaceOnUse"><stop offset=".44" stop-color="#106a39"></stop><stop offset=".49" stop-color="#287b3a"></stop><stop offset=".58" stop-color="#549b3c"></stop><stop offset=".66" stop-color="#74b23e"></stop><stop offset=".72" stop-color="#87c03f"></stop><stop offset=".77" stop-color="#8fc640"></stop></linearGradient><linearGradient id="linear-gradient-15" x1="149.7" y1="182.1" x2="155.24" y2="226.66" gradientUnits="userSpaceOnUse"><stop offset=".52" stop-color="#106a39"></stop><stop offset=".63" stop-color="#3d8b3b"></stop><stop offset=".8" stop-color="#8fc640"></stop></linearGradient><linearGradient id="linear-gradient-16" x1="223.01" y1="161.56" x2="-25.35" y2="41.78" gradientUnits="userSpaceOnUse"><stop offset=".23" stop-color="#106a39"></stop><stop offset=".26" stop-color="#2a7d3a"></stop><stop offset=".35" stop-color="#6fae3e"></stop><stop offset=".38" stop-color="#8fc640"></stop></linearGradient><linearGradient id="linear-gradient-17" x1="-1530.7" y1="2633.73" x2="-1586.91" y2="2533.28" gradientTransform="translate(-2618.17 1397.94) rotate(95.31) scale(1 -1)" xlink:href="#linear-gradient-15"></linearGradient><linearGradient id="White_Black" data-name="White, Black" x1="-1533.48" y1="2628.86" x2="-1578.72" y2="2548.01" gradientTransform="translate(-2618.17 1397.94) rotate(95.31) scale(1 -1)" gradientUnits="userSpaceOnUse"><stop offset="0" stop-color="#fff"></stop><stop offset="1" stop-color="#000"></stop></linearGradient><linearGradient id="linear-gradient-18" x1="-1006.06" y1="7929.55" x2="-961.16" y2="8011.43" gradientTransform="translate(6925.28 4386.76) rotate(114.88)" xlink:href="#linear-gradient-15"></linearGradient><linearGradient id="White_Black-2" data-name="White, Black" x1="-1003.3" y1="7934.63" x2="-969.23" y2="7996.76" gradientTransform="translate(6925.28 4386.76) rotate(114.88)" xlink:href="#White_Black"></linearGradient><linearGradient id="linear-gradient-19" x1="138.87" y1="166.96" x2="264.26" y2="106.13" xlink:href="#linear-gradient-15"></linearGradient><linearGradient id="linear-gradient-20" x1="-1878.54" y1="6379.46" x2="-1934.75" y2="6279.01" gradientTransform="translate(6752.58 1397.94) rotate(84.69)" xlink:href="#linear-gradient-15"></linearGradient><linearGradient id="White_Black-3" data-name="White, Black" x1="-1880.83" y1="6375.44" x2="-1927.98" y2="6291.18" gradientTransform="translate(6752.58 1397.94) rotate(84.69)" xlink:href="#White_Black"></linearGradient><linearGradient id="linear-gradient-21" x1="-2939.56" y1="3759.87" x2="-2894.66" y2="3841.76" gradientTransform="translate(-1957.82 4386.76) rotate(65.12) scale(1 -1)" xlink:href="#linear-gradient-15"></linearGradient><linearGradient id="White_Black-4" data-name="White, Black" x1="-2936.95" y1="3764.68" x2="-2902.31" y2="3827.85" gradientTransform="translate(-1957.82 4386.76) rotate(65.12) scale(1 -1)" xlink:href="#White_Black"></linearGradient><linearGradient id="linear-gradient-22" x1="1184.22" y1="-272.15" x2="1211.89" y2="-272.15" gradientTransform="translate(-932.04 637.7) rotate(-13.63)" gradientUnits="userSpaceOnUse"><stop offset=".12" stop-color="#f4df6c"></stop><stop offset=".56" stop-color="#febb25"></stop></linearGradient><linearGradient id="linear-gradient-23" x1="5128.75" y1="684.16" x2="5156.43" y2="684.16" gradientTransform="translate(5362.66 637.7) rotate(-166.37) scale(1 -1)" gradientUnits="userSpaceOnUse"><stop offset=".12" stop-color="#f4df6c"></stop><stop offset=".18" stop-color="#f5d85f"></stop><stop offset=".36" stop-color="#fac83f"></stop><stop offset=".52" stop-color="#fdbe2c"></stop><stop offset=".62" stop-color="#febb25"></stop></linearGradient><linearGradient id="linear-gradient-24" x1="1418.13" y1="-261.38" x2="1429.44" y2="-261.38" gradientTransform="translate(-1214.45 413.08)" gradientUnits="userSpaceOnUse"><stop offset=".12" stop-color="#ff946e"></stop><stop offset="1" stop-color="#febb25"></stop></linearGradient><linearGradient id="linear-gradient-25" x1="5287.06" y1="787.26" x2="5298.37" y2="787.26" gradientTransform="translate(947.08 5444.41) rotate(-90) scale(1 -1)" xlink:href="#linear-gradient-24"></linearGradient><linearGradient id="linear-gradient-26" x1="184.9" y1="159.03" x2="182.95" y2="206.23" gradientUnits="userSpaceOnUse"><stop offset=".12" stop-color="#ff946e"></stop><stop offset=".31" stop-color="#fe9d5b"></stop><stop offset=".74" stop-color="#feb234"></stop><stop offset=".97" stop-color="#febb25"></stop></linearGradient><linearGradient id="linear-gradient-27" x1="199.52" y1="91.32" x2="179.62" y2="147.63" gradientUnits="userSpaceOnUse"><stop offset=".12" stop-color="#f4df6c"></stop><stop offset="1" stop-color="#febb25"></stop></linearGradient><linearGradient id="White_Black-5" data-name="White, Black" x1="152.35" y1="112.87" x2="192.82" y2="148.82" gradientTransform="matrix(1,0,0,1,0,0)" xlink:href="#White_Black"></linearGradient><linearGradient id="White_Black-6" data-name="White, Black" x1="197.91" y1="111.97" x2="216.56" y2="156.51" gradientTransform="matrix(1,0,0,1,0,0)" xlink:href="#White_Black"></linearGradient><linearGradient id="linear-gradient-28" x1="185.86" y1="174.32" x2="186.42" y2="183.18" gradientUnits="userSpaceOnUse"><stop offset="0" stop-color="#fff"></stop><stop offset="0" stop-color="#fbfbfb"></stop><stop offset=".04" stop-color="#cbcbcb"></stop><stop offset=".09" stop-color="#a1a1a1"></stop><stop offset=".14" stop-color="#7a7a7a"></stop><stop offset=".19" stop-color="#595959"></stop><stop offset=".25" stop-color="#3d3d3d"></stop><stop offset=".32" stop-color="#262626"></stop><stop offset=".4" stop-color="#151515"></stop><stop offset=".49" stop-color="#080808"></stop><stop offset=".62" stop-color="#010101"></stop><stop offset=".94" stop-color="#000"></stop></linearGradient><linearGradient id="linear-gradient-29" x1="185.38" y1="178.08" x2="187.64" y2="178.08" xlink:href="#linear-gradient-28"></linearGradient><linearGradient id="linear-gradient-30" x1="123.84" y1="-.98" x2="215.85" y2="170.38" gradientTransform="translate(40.57 96.63) rotate(12.24)" gradientUnits="userSpaceOnUse"><stop offset=".08" stop-color="#fff"></stop><stop offset=".08" stop-color="#fefefe"></stop><stop offset=".19" stop-color="#c3f2c3"></stop><stop offset=".3" stop-color="#8fe88f"></stop><stop offset=".41" stop-color="#63df63"></stop><stop offset=".52" stop-color="#3fd73f"></stop><stop offset=".63" stop-color="#23d223"></stop><stop offset=".74" stop-color="#0fce0f"></stop><stop offset=".85" stop-color="#03cb03"></stop><stop offset=".96" stop-color="#00cb00"></stop></linearGradient><filter id="outer-glow-1" filterUnits="userSpaceOnUse"><feGaussianBlur stdDeviation="1.85"></feGaussianBlur></filter><linearGradient id="linear-gradient-31" x1="312.33" y1="135.87" x2="481.87" y2="411.38" gradientUnits="userSpaceOnUse"><stop offset=".08" stop-color="#fff"></stop><stop offset=".1" stop-color="#fbf8fe"></stop><stop offset=".2" stop-color="#efe1fd"></stop><stop offset=".3" stop-color="#e5cffc"></stop><stop offset=".43" stop-color="#dfc2fc"></stop><stop offset=".59" stop-color="#dbbbfc"></stop><stop offset=".96" stop-color="#dab9fc"></stop></linearGradient><linearGradient id="linear-gradient-32" x1="283.9" y1="350.27" x2="429.42" y2="511.89" gradientUnits="userSpaceOnUse"><stop offset=".08" stop-color="#fff"></stop><stop offset=".09" stop-color="#fbfdff"></stop><stop offset=".14" stop-color="#d4ecff"></stop><stop offset=".21" stop-color="#b2ddff"></stop><stop offset=".27" stop-color="#95d0ff"></stop><stop offset=".35" stop-color="#7dc6ff"></stop><stop offset=".43" stop-color="#6bbeff"></stop><stop offset=".53" stop-color="#5eb9ff"></stop><stop offset=".67" stop-color="#57b5ff"></stop><stop offset=".96" stop-color="#55b5ff"></stop></linearGradient><linearGradient id="linear-gradient-33" x1="-23.56" y1="-120.92" x2="149.82" y2="-49.75" gradientTransform="translate(65.56 487.75) rotate(15.84)" gradientUnits="userSpaceOnUse"><stop offset=".08" stop-color="#fff"></stop><stop offset=".11" stop-color="#fdfaeb"></stop><stop offset=".18" stop-color="#faf3c9"></stop><stop offset=".25" stop-color="#f8ecac"></stop><stop offset=".33" stop-color="#f7e794"></stop><stop offset=".41" stop-color="#f5e382"></stop><stop offset=".52" stop-color="#f4e175"></stop><stop offset=".66" stop-color="#f4df6e"></stop><stop offset=".96" stop-color="#f4df6c"></stop></linearGradient><linearGradient id="linear-gradient-34" x1="73.9" y1="366.64" x2="86.01" y2="366.64" gradientUnits="userSpaceOnUse"><stop offset=".18" stop-color="#e2f4f7"></stop><stop offset=".22" stop-color="#d4f1f5"></stop><stop offset=".43" stop-color="#8ae2ef"></stop><stop offset=".63" stop-color="#4fd6e9"></stop><stop offset=".79" stop-color="#24cee6"></stop><stop offset=".92" stop-color="#0ac8e3"></stop><stop offset="1" stop-color="#01c7e3"></stop></linearGradient><linearGradient id="linear-gradient-35" x1="487.25" y1="462.48" x2="568.92" y2="616.99" xlink:href="#linear-gradient-12"></linearGradient><linearGradient id="linear-gradient-36" x1="161.59" y1="169.16" x2="149.41" y2="164.76" gradientTransform="matrix(1,0,0,1,0,0)" xlink:href="#linear-gradient-24"></linearGradient><linearGradient id="linear-gradient-37" x1="120.09" y1="51.87" x2="126.74" y2="64.46" gradientUnits="userSpaceOnUse"><stop offset=".47" stop-color="#f4df6c"></stop><stop offset=".56" stop-color="#f6d75d"></stop><stop offset=".72" stop-color="#fbc437"></stop><stop offset=".78" stop-color="#febb25"></stop></linearGradient><linearGradient id="linear-gradient-38" x1="121.17" y1="51.3" x2="127.83" y2="63.89" xlink:href="#linear-gradient-37"></linearGradient><linearGradient id="linear-gradient-39" x1="118.99" y1="52.45" x2="125.64" y2="65.04" xlink:href="#linear-gradient-37"></linearGradient><linearGradient id="linear-gradient-40" x1="122.78" y1="50.45" x2="129.44" y2="63.04" xlink:href="#linear-gradient-37"></linearGradient><linearGradient id="linear-gradient-41" x1="235.52" y1="70.68" x2="242.17" y2="83.27" xlink:href="#linear-gradient-37"></linearGradient><linearGradient id="linear-gradient-42" x1="236.6" y1="70.11" x2="243.26" y2="82.7" xlink:href="#linear-gradient-37"></linearGradient><linearGradient id="linear-gradient-43" x1="234.42" y1="71.27" x2="241.07" y2="83.86" xlink:href="#linear-gradient-37"></linearGradient><linearGradient id="linear-gradient-44" x1="238.21" y1="69.26" x2="244.87" y2="81.85" xlink:href="#linear-gradient-37"></linearGradient><linearGradient id="linear-gradient-45" x1="273.59" y1="113.24" x2="290.25" y2="144.77" xlink:href="#linear-gradient-37"></linearGradient><linearGradient id="linear-gradient-46" x1="246.52" y1="137.54" x2="263.19" y2="169.07" xlink:href="#linear-gradient-37"></linearGradient><linearGradient id="linear-gradient-47" x1="242.92" y1="143.98" x2="259.58" y2="175.52" xlink:href="#linear-gradient-37"></linearGradient><linearGradient id="linear-gradient-48" x1="252.42" y1="138.96" x2="269.09" y2="170.49" xlink:href="#linear-gradient-37"></linearGradient><linearGradient id="linear-gradient-49" x1="100.58" y1="136.29" x2="117.25" y2="167.82" xlink:href="#linear-gradient-37"></linearGradient><linearGradient id="linear-gradient-50" x1="95.57" y1="138.68" x2="112.23" y2="170.21" xlink:href="#linear-gradient-37"></linearGradient><linearGradient id="linear-gradient-51" x1="74.37" y1="85.07" x2="91.04" y2="116.61" xlink:href="#linear-gradient-37"></linearGradient><linearGradient id="linear-gradient-52" x1="198.98" y1="37.97" x2="208" y2="55.03" xlink:href="#linear-gradient-37"></linearGradient><linearGradient id="linear-gradient-53" x1="198.93" y1="47.22" x2="202.1" y2="53.21" xlink:href="#linear-gradient-37"></linearGradient><linearGradient id="linear-gradient-54" x1="178.8" y1="65" x2="183.21" y2="73.33" xlink:href="#linear-gradient-37"></linearGradient><linearGradient id="linear-gradient-55" x1="178.78" y1="69.52" x2="180.33" y2="72.45" xlink:href="#linear-gradient-37"></linearGradient></defs><g class="cls-119"><g id="Layer_1" data-name="Layer 1"><ellipse class="cls-81" cx="52.27" cy="540.15" rx="41.49" ry="4.08" transform="translate(-56.82 8.55) rotate(-6.07)"></ellipse><g><g class="cls-114"><rect class="cls-13" x="171.29" y="22.4" width="39.02" height="141.94" rx="19.51" ry="19.51" transform="translate(121.9 -107.57) rotate(45)"></rect><rect class="cls-90" x="192.72" y="253.05" width="39.02" height="250.1" rx="19.51" ry="19.51" transform="translate(329.51 -39.32) rotate(45)"></rect><rect class="cls-91" x="381.5" y="61.57" width="39.02" height="250.1" rx="19.51" ry="19.51" transform="translate(249.41 -228.9) rotate(45)"></rect><rect class="cls-89" x="303.69" y="294.46" width="39.02" height="144.53" rx="19.51" ry="19.51" transform="translate(353.97 -121.12) rotate(45)"></rect><rect class="cls-95" x="414.88" y="183.26" width="39.02" height="144.53" rx="19.51" ry="19.51" transform="translate(307.91 -232.32) rotate(45)"></rect><rect class="cls-96" x="180.04" y="5.73" width="93.83" height="341.32" rx="46.91" ry="46.91" transform="translate(191.2 -108.81) rotate(45)"></rect><rect class="cls-94" x="382.85" y="57.5" width="28.77" height="104.66" rx="14.38" ry="14.38" transform="translate(194.01 -248.72) rotate(45)"></rect><rect class="cls-92" x="300.98" y="141.96" width="28.77" height="104.66" rx="14.38" ry="14.38" transform="translate(229.75 -166.1) rotate(45)"></rect><rect class="cls-93" x="218.1" y="225.58" width="28.77" height="104.66" rx="14.38" ry="14.38" transform="translate(264.61 -82.99) rotate(45)"></rect><rect class="cls-33" x="136.58" y="306.36" width="28.77" height="104.66" rx="14.38" ry="14.38" transform="translate(297.85 -1.69) rotate(45)"></rect></g><g><polygon class="cls-97" points="264.68 540.15 117.29 545.71 86.6 509.86 241.81 509.86 264.68 540.15"></polygon><polygon class="cls-98" points="414.69 535 267.67 535 292.58 508.76 439.6 508.76 414.69 535"></polygon><g><g><path class="cls-32" d="M234.33,205.19c-10.62,9.26-25.68,11.5-37.04,2.23-4.8-3.92-8.35-9.07-11.19-14.62v-44.52c3.77-.08,8.19-.15,12.64-.16,10.19-.04,20.52.19,23.4,1.19,10.64,3.68,22.45,10.86,25.47,22.48,3.1,11.91-4.49,25.76-13.28,33.4Z"></path><circle class="cls-102" cx="218.74" cy="196.65" r="9.98"></circle><path class="cls-6" d="M226.33,196.65c0,.41-.03.81-.09,1.19-.4-.15-.84-.23-1.3-.23-2.08,0-3.77,1.69-3.77,3.77,0,.81.26,1.57.69,2.18-.95.43-2.01.67-3.12.67-4.19,0-7.59-3.4-7.59-7.59s3.4-7.59,7.59-7.59,7.59,3.4,7.59,7.59Z"></path></g><g><path class="cls-41" d="M137.58,205.19c10.62,9.26,25.68,11.5,37.04,2.23,4.8-3.92,8.35-9.07,11.19-14.62v-44.52c-3.77-.08-8.19-.15-12.64-.16-10.19-.04-20.52.19-23.4,1.19-10.64,3.68-22.45,10.86-25.47,22.48-3.1,11.91,4.49,25.76,13.28,33.4Z"></path><circle class="cls-37" cx="151.51" cy="196.65" r="9.98"></circle><circle class="cls-6" cx="151.51" cy="196.65" r="7.59"></circle></g><g><path class="cls-35" d="M117.71,143.76c2.35,3.64,6.35,5.87,10.68,5.96l45.06.86,12.64.23v-22.99c-13.86-18.35-40.09-46.73-70.39-48.01-37.06-1.55-8.98,46.9,2.01,63.95Z"></path><path class="cls-34" d="M145.82,108.98s-33.12-40.4-41.32-16.97,41.32,16.97,41.32,16.97Z"></path><path class="cls-17" d="M141.23,107.4s-26.65-32.51-33.26-13.66c-6.61,18.85,33.26,13.66,33.26,13.66Z"></path><path class="cls-40" d="M142.8,135.66s-25.94-5.78-21.87,6.17c4.06,11.95,21.87-6.17,21.87-6.17Z"></path><path class="cls-63" d="M139.91,136.65s-19.68-4.39-16.6,4.68,16.6-4.68,16.6-4.68Z"></path></g><g><path class="cls-36" d="M254.75,143.76c-2.35,3.64-6.35,5.87-10.68,5.96l-45.06.86-12.64.23v-22.99c13.86-18.35,40.09-46.73,70.39-48.01,37.06-1.55,8.98,46.9-2.01,63.95Z"></path><path class="cls-43" d="M226.75,108.98s33.12-40.4,41.32-16.97c8.21,23.42-41.32,16.97-41.32,16.97Z"></path><path class="cls-64" d="M230.54,107.67s27.78-33.89,34.67-14.24c6.89,19.65-34.67,14.24-34.67,14.24Z"></path><path class="cls-39" d="M228.5,135.66s25.94-5.78,21.87,6.17-21.87-6.17-21.87-6.17Z"></path><path class="cls-65" d="M231.24,136.6s20.01-4.46,16.87,4.76c-3.13,9.22-16.87-4.76-16.87-4.76Z"></path></g><path class="cls-42" d="M180.32,105.84s3.22-32.26-13.13-22.34c-16.35,9.92-21.95-9.27-6.87-10.1,5.03-.28,9.12.96,12.35,2.74,5.81,3.2,9.42,9.33,9.57,15.96l.35,15.02-2.28-1.29Z"></path><path class="cls-38" d="M191.51,105.84s-3.22-32.26,13.13-22.34c16.35,9.92,21.95-9.27,6.87-10.1-5.03-.28-9.12.96-12.35,2.74-5.81,3.2-9.42,9.33-9.57,15.96l-.35,15.02,2.28-1.29Z"></path><ellipse class="cls-45" cx="209.33" cy="151.69" rx="5.65" ry="23.13" transform="translate(-32.39 60.04) rotate(-15.17)"></ellipse><ellipse class="cls-31" cx="159.82" cy="151.69" rx="23.13" ry="5.65" transform="translate(-28.4 266.27) rotate(-74.83)"></ellipse><path class="cls-46" d="M208.77,140.12c0,6.7-1.18,15.89-3.11,25.41-.9,4.41-1.96,8.89-3.13,13.23-.05.19-.1.38-.16.57-.29,1.05-.58,2.08-.88,3.11-4.47,15.25-10.34,27.86-15.67,27.86s-11.25-12.58-15.79-27.81c-.31-1.04-.61-2.09-.91-3.15-.05-.17-.1-.35-.14-.52-1.04-3.74-1.98-7.6-2.81-11.42-2.2-10.17-3.57-20.13-3.57-27.27,0-10.05,2.71-12.77,6.64-12.77,4.63,0,10.96,3.75,16.58,3.75s11.88-3.75,16.43-3.75c3.87,0,6.52,2.71,6.52,12.77Z"></path><path class="cls-12" d="M208.77,140.12c0,6.7-1.18,15.89-3.11,25.41-.9,4.41-1.96,8.89-3.13,13.23-.05.19-.1.38-.16.57h-33.25c-.05-.17-.1-.35-.14-.52-1.04-3.74-1.98-7.6-2.81-11.42-2.2-10.17-3.57-20.13-3.57-27.27,0-10.05,2.71-12.77,6.64-12.77,4.63,0,10.96,3.75,16.58,3.75s11.88-3.75,16.43-3.75c3.87,0,6.52,2.71,6.52,12.77Z"></path><path class="cls-105" d="M180.36,154.96s-10.47.67-14.7,10.05c-4.23,9.39-3.95-29.63-3.95-29.63l1.13-4,17.52,23.58Z"></path><path class="cls-105" d="M191.27,155.23s10.47.67,14.7,10.05c4.23,9.39,3.95-29.63,3.95-29.63l-1.13-4-17.52,23.58Z"></path><circle class="cls-44" cx="186.09" cy="129.32" r="26.27"></circle><circle class="cls-105" cx="168.8" cy="124.42" r="17.29"></circle><circle class="cls-105" cx="206.42" cy="124.42" r="17.29"></circle><path class="cls-8" d="M179.77,128.37c0,5.51-4.47,9.97-9.97,9.97s-9.98-4.47-9.98-9.97c0-2.63,1.02-5.02,2.68-6.8.41.55,1.07.91,1.81.91,1.24,0,2.24-1,2.24-2.24,0-.43-.12-.84-.34-1.18,1.11-.43,2.32-.66,3.58-.66,5.51,0,9.97,4.46,9.97,9.97Z"></path><circle class="cls-70" cx="172.39" cy="130.13" r="6.96"></circle><path class="cls-7" d="M214.75,128.37c0,5.51-4.46,9.97-9.97,9.97s-9.97-4.47-9.97-9.97c0-2.71,1.08-5.17,2.84-6.97.39.59,1.05.97,1.81.97,1.2,0,2.17-.97,2.17-2.17,0-.43-.13-.84-.35-1.17,1.09-.41,2.27-.64,3.51-.64,5.51,0,9.97,4.46,9.97,9.97Z"></path><circle class="cls-70" cx="206.22" cy="131.38" r="6.96"></circle><path class="cls-105" d="M177.59,144.46s13.61,8.22,16.18,0h-16.18Z"></path><path class="cls-105" d="M185.82,176.19c-5.99,0-11.76.91-16.85,2.62.34,1.24.69,2.47,1.05,3.68,4.73-1.62,10.14-2.48,15.79-2.48s10.96.85,15.67,2.43c.36-1.21.7-2.44,1.04-3.68-5.06-1.68-10.77-2.58-16.71-2.58Z"></path><path class="cls-105" d="M185.82,176.19c-5.99,0-11.76.91-16.85,2.62.34,1.24.69,2.47,1.05,3.68,4.73-1.62,10.14-2.48,15.79-2.48s10.96.85,15.67,2.43c.36-1.21.7-2.44,1.04-3.68-5.06-1.68-10.77-2.58-16.71-2.58Z"></path><rect class="cls-30" x="181.34" y="175.14" width="9.52" height="5.88" rx="1.32" ry="1.32"></rect><rect class="cls-70" x="182.16" y="175.65" width="7.87" height="4.86" rx="1.32" ry="1.32"></rect><rect class="cls-22" x="185.68" y="175.65" width=".93" height="4.86"></rect><circle class="cls-105" cx="164.36" cy="120.2" r="2.17"></circle><circle class="cls-105" cx="173.97" cy="129.72" r="1.4"></circle><circle class="cls-105" cx="175.56" cy="131.38" r=".45"></circle><circle class="cls-105" cx="204.45" cy="129.72" r="1.4"></circle><circle class="cls-105" cx="206.05" cy="131.38" r=".45"></circle><path class="cls-118" d="M182.92,170c-.09,0-.18,0-.27-.02-.44-.06-.84-.37-1.02-.78-.19-.44-.23-1.6,1-2.83.12-.12.3-.12.42,0,.12.12.12.3,0,.42-1.04,1.04-.98,1.94-.87,2.17.1.22.32.39.56.43.26.04.6-.01.88-.12.54-.22,1.19-.74,1.57-1.28.2-.28.3-.47.35-.59-2.31-1.04-3.51-2.67-4.1-3.87-.67-1.34-.74-2.44-.75-2.48,0-.09.03-.18.1-.24.07-.06.16-.09.25-.07,3.09.5,4.7,2.39,4.76,2.47.1.13.09.31-.04.42-.13.1-.31.09-.42-.04-.02-.02-1.4-1.64-4-2.19.08.41.25,1.11.64,1.9.83,1.66,2.18,2.89,4.02,3.66.08.04.15.11.18.2.08.29-.28.87-.5,1.18-.45.63-1.19,1.23-1.84,1.49-.29.11-.61.18-.91.18Z"></path><path class="cls-118" d="M189.32,170s-.08,0-.12,0c-.43-.03-.86-.15-1.26-.38-.27-.15-.53-.35-.79-.6-.24-.23-.44-.47-.63-.73-.09-.13-.06-.32.08-.41.13-.09.32-.06.41.08.16.23.33.43.55.64.22.21.44.38.67.51.32.18.65.29,1,.31.18.01.5,0,.67-.22.13-.16.2-.4.19-.64-.06-1.01-.94-1.83-1.71-2.43-.07-.06-.11-.14-.11-.23,0-.09.04-.17.11-.23,1.58-1.33,2.22-3.38,2.43-4.26-2.66.59-4,2.18-4.02,2.2-.1.13-.29.14-.42.04-.13-.1-.14-.29-.04-.42.07-.08,1.64-1.95,4.81-2.49.09-.02.19.01.26.08s.1.16.09.26c-.02.12-.47,2.93-2.45,4.81.79.65,1.6,1.52,1.66,2.64.02.4-.1.78-.33,1.06-.23.28-.6.43-1.04.43Z"></path></g><g><g><path class="cls-71" d="M303.25,239c-1.96-8.47-10.67-17.02-19.16-18.86-6.27-1.36-12.27-.42-17.31,2.14-2.88,1.46-6.29-.65-6.28-3.88l.06-36.17c0-5.27-4.26-9.56-9.53-9.56l-125.96-.2c-5.15,0-9.34,4.16-9.34,9.31l-.2,125.82c0,3.6,1.95,6.74,4.86,8.41l-1.68.11,4.67,1.01h.04c.57.11,1.17.17,1.77.17h2.74s32.33.06,32.33.06c4.54,0,7.43-4.85,5.25-8.83-2.11-3.84-3.27-8.28-3.15-13,.34-13.29,10.98-24.23,24.26-24.91,14.77-.75,26.98,11.01,26.95,25.62,0,5.49-1.75,10.58-4.7,14.75-1.15,1.62-.92,3.61.16,4.95l-1.99.49,4.17.9h0c.31.08.64.12.98.12l38.6.06c5.28,0,9.56-4.26,9.57-9.54l.06-35.94c0-3.33,3.51-5.48,6.48-3.99,3.44,1.73,7.32,2.7,11.43,2.71,16.15.03,28.84-14.91,24.94-31.73Z"></path><path class="cls-24" d="M274.06,269.81c-4.11,0-7.99-.98-11.43-2.71-2.97-1.49-6.47.67-6.48,3.99l-.06,35.94c0,.34-.02.68-.06,1.02-.25,2.29-1.31,4.34-2.89,5.85-1.47,1.41-3.39,2.36-5.52,2.6-.36.04-.73.06-1.11.06l-27.3-.04h-7.49s-3.81-.02-3.81-.02c-3.32,0-5.24-3.75-3.32-6.45.61-.86,1.17-1.76,1.67-2.7h0c1.32-2.46,2.24-5.15,2.7-8,.21-1.32.33-2.67.33-4.05.02-11.22-7.18-20.77-17.22-24.24-2.61-.91-5.4-1.4-8.32-1.41-.47,0-.94,0-1.42.03-3.5.18-6.81,1.07-9.81,2.53-8.37,4.07-14.2,12.58-14.45,22.37-.12,4.72,1.04,9.16,3.15,13,2.19,3.98-.71,8.84-5.25,8.83l-35.07-.06c-5.35,0-9.68-4.35-9.67-9.7l.2-125.82c0-2.53,1.01-4.82,2.65-6.5,1.7-1.74,4.07-2.82,6.69-2.82h4.38s7.48.02,7.48.02l28.45.05h7.08s6.39.02,6.39.02l72.18.11c5.27,0,9.54,4.29,9.53,9.57l-.06,36.17c0,3.23,3.4,5.35,6.28,3.88,5.04-2.56,11.04-3.5,17.31-2.14,8.5,1.85,17.2,10.39,19.16,18.86,3.89,16.82-8.79,31.76-24.94,31.73Z"></path><g class="cls-115"><path class="cls-87" d="M253.16,313.91l-84.96-142.3h6.39s81.46,136.45,81.46,136.45c-.25,2.29-1.31,4.34-2.89,5.85Z"></path><path class="cls-87" d="M183.77,269.66c-.47,0-.94,0-1.42.03-3.5.18-6.81,1.07-9.81,2.53l-58.44-97.88c1.7-1.74,4.07-2.82,6.69-2.82h4.38s58.58,98.13,58.58,98.13Z"></path><path class="cls-87" d="M211.74,316.52h-3.81c-3.32-.01-5.24-3.75-3.32-6.46.61-.86,1.17-1.76,1.67-2.7l5.47,9.16Z"></path><path class="cls-87" d="M247.63,316.51c-.36.04-.73.06-1.11.06l-27.3-.04-10.25-17.17c.21-1.32.33-2.67.33-4.05.02-11.22-7.18-20.77-17.22-24.24l-59.42-99.52,28.45.05,86.52,144.91Z"></path></g></g><g class="cls-120"><path class="cls-117" d="M163.79,254.05c-.52,0-1.03-.02-1.52-.08-2.52-.32-4.83-2.03-5.88-4.35-1.13-2.49-1.43-9.07,5.49-16.16.65-.67,1.72-.68,2.39-.03.67.65.68,1.72.03,2.39-5.83,5.97-5.43,11.09-4.83,12.41.57,1.26,1.87,2.22,3.23,2.4,1.48.19,3.4-.1,5-.76,3.08-1.27,6.73-4.32,8.87-7.41,1.1-1.59,1.67-2.69,1.96-3.38-13.25-5.77-20.14-14.95-23.6-21.74-3.88-7.61-4.4-13.83-4.42-14.09-.04-.51.16-1.02.53-1.37.38-.35.89-.51,1.4-.43,17.63,2.63,26.91,13.31,27.3,13.76.6.71.52,1.78-.19,2.38-.71.6-1.77.52-2.38-.19-.11-.12-8.1-9.25-22.95-12.22.46,2.34,1.51,6.31,3.79,10.75,4.82,9.38,12.6,16.3,23.12,20.57.48.19.87.64,1.01,1.14.48,1.67-1.54,4.95-2.78,6.75-2.52,3.64-6.68,7.1-10.37,8.61-1.64.67-3.49,1.05-5.19,1.07"></path><path class="cls-117" d="M200.18,253.63c-.22,0-.45,0-.67-.01-2.47-.12-4.89-.82-7.18-2.09-1.55-.86-3.03-1.95-4.52-3.35-1.41-1.31-2.56-2.62-3.61-4.11-.54-.76-.36-1.82.41-2.35.76-.54,1.82-.36,2.35.4.92,1.3,1.92,2.44,3.15,3.59,1.29,1.2,2.56,2.14,3.86,2.87,1.83,1.02,3.75,1.58,5.69,1.67,1,.05,2.82-.06,3.82-1.27.74-.91,1.13-2.28,1.03-3.67-.4-5.76-5.5-10.35-9.9-13.69-.41-.31-.65-.78-.67-1.29-.02-.51.2-1,.59-1.33,8.88-7.66,12.38-19.4,13.52-24.42-15.08,3.53-22.65,12.71-22.73,12.8-.59.72-1.65.84-2.37.26-.73-.58-.84-1.64-.26-2.37.37-.46,9.19-11.24,27.2-14.52.53-.1,1.08.07,1.47.44.39.38.58.92.5,1.45-.1.71-2.45,16.73-13.63,27.53,4.53,3.66,9.19,8.53,9.63,14.9.16,2.27-.49,4.47-1.79,6.05-1.32,1.6-3.4,2.48-5.92,2.51"></path></g></g><g id="man"><g><path class="cls-15" d="M486.76,540.58h38.25s1.43-6.12-1.08-10.28c-2.22-3.68-1.37-5.78.28-8.83-1.73.71-3.97,1.36-6.44,1.22-1.91-.11-3.92-.98-5.69-2.01-1.65,1.88-8.69,9.9-10.9,11.48-2.5,1.8-13.64,1.16-14.41,8.42Z"></path><path class="cls-15" d="M537.38,540.58h38.25s1.43-6.12-1.08-10.28c-2.22-3.68-1.37-5.78.28-8.83-1.73.71-3.97,1.36-6.44,1.22-1.91-.11-3.92-.98-5.69-2.01-1.65,1.88-8.69,9.9-10.9,11.48-2.5,1.8-13.64,1.16-14.41,8.42Z"></path><path class="cls-80" d="M576.34,528.42h-23.23l-7.52-73.18c-3.53-7.02-6.68-21.11-8.84-32.62-1.42-7.54-2.4-13.97-2.79-16.57h0c-.12-.8-.18-1.24-.18-1.24l-3.34,29.73-1.24,11.08c.3,1.08.52,2.67.65,4.67,1.35,19.6-4.59,78.13-4.59,78.13l-21.98.12.66-81.21c-1.95-18.23-2.86-33.66-3.1-46.6-.09-4.54-.09-8.77-.03-12.7.33-22.35,2.74-35.2,4.16-40.93.62-2.47,1.05-3.61,1.05-3.61l6.08-.47,48-3.67c.85,2.72,1.77,10.25,2.68,20.17.28,3.06.56,6.35.83,9.8,2.62,32.51,4.95,78.86,4.95,78.86,4.81,26.92,7.79,80.23,7.79,80.23Z"></path><path class="cls-78" d="M544.39,386.85l-5.31,21.41c-2.01-9.85-3.23-17.81-3.23-17.81l-1.9,15.59c-.12-.8-.18-1.23-.18-1.23l-3.34,29.73c-14.45-17.7-23.87-34.38-29.64-46.52.33-22.35,2.74-35.2,4.16-40.93.62-2.47,1.05-3.61,1.05-3.61l6.08-.47,32.3,43.84Z"></path><path class="cls-74" d="M531.85,395.9c-2.23-4.65-3.77-9.58-4.99-14.58-1.13-5.01-2.02-10.19-1.54-15.34,1.77,9.92,4.7,20.01,6.53,29.92h0Z"></path><path class="cls-80" d="M515.76,343.01s22.46,108.44,30.4,112.31c7.93,3.87,8.88-6.89,8.88-6.89l-8.81-67.93-10.64-12.91-3.73-18.67-16.09-5.91Z"></path></g><path class="cls-66" d="M527.38,243.56c-1.36-8.01-1.4-12.76-1.4-12.76l15.49-12.48c-.58,17.16,10.42,25.41,10.42,25.41,0,0-20.64,10.16-32.57,6.4,0,0,2.94-3.75,8.06-6.57Z"></path><path class="cls-9" d="M522.34,230.51s19.7,3.27,21.55-9.03c1.85-12.3,5.64-20.16-6.86-22.77-12.5-2.61-15.66,1.72-17.27,5.67-1.62,3.96-2.49,24.96,2.58,26.13Z"></path><g><path class="cls-86" d="M453.14,255.87l-4.19-2.6s-5.23-7.72-14.16-2.92c0,0-3.54,2.26-1.16,4.14,2.38,1.89,1.74.82,5.03,3.56,3.29,2.74,7.55,3.71,10.29,2.21l3.52-.33.68-4.06Z"></path><path class="cls-14" d="M448.16,256.68c1.08-3.38,1.59-3.68,1.59-3.68,0,0,33.92,4.01,37.12,4.24,3.2.24,47.61-8.91,47.61-8.91l20.97,25.46s-61.83,2.33-69.92,1.57c-13.37-1.25-37.62-13.7-37.62-13.7,0,0-.6-2.33.25-4.99Z"></path></g><path class="cls-75" d="M562.77,351.78c.06,1.31-2.65,2.76-3.82,3.28-8.85,3.97-17.1,6.73-26.42,7.62-11.05,1.13-24.11-1.35-28.59-1.29-.48,0-.9-.18-1.26-.48-.3-.24-.54-13.74-.3-30.76,0-.66,0-1.38.06-2.03v-.24c.02-1.77.05-3.57.08-5.39.11-4.97.3-10.08.51-15.16.32-7.48.77-14.83,1.38-21.35.64-6.8,1.46-12.7,2.5-16.88,2.39-9.62,7.88-15.95,12.9-20.61l4.12-3.64c4.12.83,8.48.59,12.84-1.55,4.72-2.33,9.86-4.84,10.69-4.24,6.37,4.76,10.66,15.56,12.85,29.3,1.18,7.39,1.76,15.63,1.73,24.23-.01,3.3-.11,6.65-.31,10.03-1.06,18.14.03,33.86.65,43,.18,2.63.32,4.72.36,6.16Z"></path><path class="cls-5" d="M458.03,184.11l-124.6-19.79c-5.3-.84-10.27,2.77-11.12,8.07l-5.51,34.73c-.26,1.61.15,6.13.15,6.13l4.49.67c.25.06.51.1.78.12h0c.81.07,1.66-.04,2.51-.34,4.13-1.5,8.71-1.95,13.36-1.1,13.12,2.41,22.29,14.64,20.89,27.9-1.55,14.75-15.11,25-29.57,22.71-5.44-.86-10.21-3.38-13.87-6.95-.71-.69-1.57-1.06-2.43-1.15h0l-4.7-.71-5.85,42.36c-.83,5.22,2.73,10.13,7.96,10.96l35.59,5.65c3.29.52,4.88,4.33,2.94,7.04-2.24,3.14-3.81,6.83-4.46,10.9-2.54,15.99,10.28,30.88,27.55,29.64,8.7-.62,18.51-7.92,21.67-16.04,2.33-6,2.33-12.09.58-17.48-1-3.08,1.63-6.13,4.83-5.62l35.81,5.69c5.22.83,10.13-2.73,10.96-7.95l19.81-124.73c.81-5.1-2.67-9.9-7.77-10.71Z"></path><path class="cls-14" d="M547.93,268s-9.55,44.57-45.41,54.5c.11-4.97.3-10.08.51-15.16.32-7.48.77-14.83,1.38-21.35.64-.33,1.24-.59,1.79-.77,12.17-4.01,41.72-17.22,41.72-17.22Z"></path><path class="cls-25" d="M461.2,194.12l-19.81,124.73c-.83,5.22-5.74,8.78-10.96,7.95l-35.81-5.69c-3.2-.51-5.83,2.54-4.83,5.62,1.75,5.39,1.75,11.48-.58,17.48-3.15,8.13-12.97,15.42-21.67,16.04-4.52.33-8.74-.45-12.45-2.07-6-2.61-10.7-7.41-13.26-13.25-1.37-3.11-2.13-6.52-2.15-10.05-.01-1.41.09-2.84.32-4.27.64-4.07,2.21-7.76,4.46-10.89,1.21-1.69,1.05-3.79-.03-5.27-.66-.91-1.66-1.58-2.91-1.78l-3.99-.63-19.72-3.13-11.89-1.89c-5.22-.83-8.78-5.74-7.96-10.96l6.07-38.22c.52-3.28,4.53-4.61,6.91-2.28,3.67,3.57,8.43,6.08,13.87,6.95,14.46,2.3,28.02-7.96,29.57-22.71,1.4-13.26-7.78-25.5-20.9-27.9-4.65-.85-9.23-.4-13.36,1.1-4.28,1.55-8.64-2.08-7.93-6.57l5.52-34.73c.84-5.3,5.82-8.91,11.12-8.07l74.13,11.77,19.71,3.13,7.67,1.22,7.52,1.19,7.77,1.24,7.8,1.24c4.28.68,7.42,4.16,7.84,8.28.08.79.06,1.61-.07,2.43Z"></path><g class="cls-113"><polygon class="cls-83" points="422.66 178.53 337.52 312.05 317.8 308.92 402.95 175.4 422.66 178.53"></polygon><path class="cls-83" d="M461.27,191.7l-106.17,166.5c-6-2.61-10.7-7.41-13.26-13.25l103.79-162.77,7.8,1.24c4.28.68,7.42,4.16,7.84,8.28Z"></path><path class="cls-83" d="M437.85,180.94l-98.17,153.95c-.01-1.41.09-2.84.32-4.27.64-4.07,2.21-7.76,4.46-10.89,1.21-1.69,1.05-3.79-.03-5.27l85.91-134.71,7.52,1.19Z"></path></g><text class="cls-111" transform="translate(323.52 291.82) rotate(8.6)"><tspan x="0" y="0">Upgrade</tspan></text><g><path class="cls-76" d="M397.27,263.02c-1.88-2.16-3.55-4.06-5.2-5.97-2.14-2.46-4.3-4.91-6.38-7.42-.58-.7-1-.74-1.75-.26-4.53,2.87-9.1,5.68-13.66,8.5-.36.23-.67.58-1.32.6.38-2.54.77-5.03,1.13-7.53.08-.53.49-.71.86-.95,4.78-2.98,9.57-5.94,14.33-8.94.66-.42,1.02-.39,1.54.22,3.69,4.31,7.42,8.59,11.15,12.87.39.44.53.87.43,1.46-.38,2.34-.72,4.68-1.13,7.41Z"></path><path class="cls-82" d="M399.38,241.28h0c-.07-.46-.28-.87-.64-1.29-1.31-1.51-2.63-3.02-3.94-4.52-1.63-1.87-3.24-3.75-4.86-5.63-.43-.5-.86-1.01-1.29-1.51-.55-.65-.94-.37-1.45-.06-4.41,2.74-8.81,5.48-13.23,8.19-.57.35-.76.8-.84,1.43-.36,2.48-.75,4.94-1.11,7.43-.04.26-.26.61.18.86,4.04-2.52,8.11-5.02,12.15-7.58h.01c.46-.28.89-.55,1.34-.84.73-.47,1.15-.4,1.67.24,1.09,1.3,2.21,2.59,3.33,3.87.61.71,1.23,1.41,1.84,2.12.97,1.12,1.94,2.23,2.93,3.39.84.95,1.7,1.95,2.62,3,.46-2.95.8-5.52,1.25-8.07.07-.39.08-.71.03-1.02ZM396.94,245.96c-.14-.08-.26-.17-.39-.26-.9-.66-1.44-1.52-2.09-2.27-.93-1.04-1.84-2.09-2.74-3.14-1.38-1.58-2.74-3.17-4.08-4.76-.4-.5-.73-.53-1.09-.37-.15.07-.3.15-.47.26-3.4,2.14-6.82,4.26-10.24,6.38-.42.25-.84.48-1.59.9.25-1.62.46-2.93.65-4.25.06-.4.35-.58.65-.77,3.83-2.38,7.65-4.77,11.47-7.18.51-.33.86-.28,1.25.18.22.25.44.51.66.76,1.61,1.87,3.22,3.75,4.84,5.62h0c1.15,1.33,2.28,2.64,3.42,3.96.28.33.4.66.33,1.09-.14.9-.28,1.78-.42,2.74-.06.36-.11.73-.17,1.12Z"></path></g><g><path class="cls-9" d="M453.28,284.6l-5.12-.85s-5.84-8.45-16.02-3.71c0,0-4.04,2.26-1.37,4.37,2.67,2.11,1.96.95,5.66,4,3.7,3.06,8.51,4.28,11.64,2.78l3.99-.21,1.22-6.39Z"></path><path class="cls-75" d="M449.37,287.21c.17-3.77,2.17-4.17,2.17-4.17,0,0,38.81-2.57,42.15-3.22,3.35-.65,34.26-26.26,34.26-26.26,0,0,11.95-10.74,20.33-7.12,7.28,3.15,9.56,9.36,9.92,15.08.44,6.81-3.4,13.18-9.59,16.07-13.88,6.48-41.64,19.21-47.96,20.31-14.07,2.44-50.24-5.39-50.24-5.39,0,0-1.17-2.34-1.04-5.3Z"></path></g><polygon class="cls-106" points="523.94 244.87 521.41 254.83 548.04 238.96 545.78 236.13 523.94 244.87"></polygon><path class="cls-4" d="M543.89,221.48s-2.23-2.78-1.63-4.69c.61-1.91,2.52-6.17.17-6.17s-3.13,3.48-4.08,2.09c-.95-1.39.78-7.21-2-8.17-2.78-.95-13.47,1.61-16.6-.15,0,0-8-5.93-2.78-15.14,0,0,.02,0,.05.01,1.43-2.48,4.21-5.42,9.36-5.7,8.07-.45,12.5,4.04,13.38,5.03,5.52.34,9.68,2.45,10.41,4.65,0,0,3.48,1.39,3.82,6.61.35,5.22-10.11,21.64-10.11,21.64Z"></path><g class="cls-116"><path class="cls-105" d="M519.74,204.39c-3.08-7.47-.88-16.27,8.16-17.26,0,0,0,.04,0,.04-8.94,1.58-10.55,9.65-8.17,17.23h0Z"></path><path class="cls-105" d="M520.32,204.33c.31-6.02,4.33-12.57,10.78-13.11,0,0,0,.04,0,.04-6.32.98-9.91,7.28-10.79,13.08h0Z"></path><path class="cls-105" d="M520.96,204.7c1.76-4.16,5.95-8,10.72-7.44,0,0,0,.04,0,.04-4.74-.12-8.5,3.63-10.72,7.4h0Z"></path><path class="cls-105" d="M543.68,219.97c2.47-5.41,5.27-10.82,6.4-16.71.11-.74.18-1.8.11-2.55.58,3.32-.87,6.85-2,10-1.3,3.15-2.78,6.4-4.51,9.26h0Z"></path><path class="cls-105" d="M544.82,215.06c.89-3.32,2.06-6.55,2.91-9.87.3-1.09.53-2.27.43-3.35.48,2.27-.47,4.57-1.02,6.74-.7,2.16-1.42,4.47-2.32,6.48h0Z"></path></g></g><g><path class="cls-1" d="M433.17,366.09h-35.16c-4.55,0-7.45,4.88-5.25,8.86,2.12,3.85-5.35,37.17-21.1,38.04-14.81.82-27.07-11-27.07-25.64,0-5.51,1.73-10.61,4.69-14.79,1.92-2.72-.01-6.47-3.34-6.47h-38.7c-5.29,0-9.58,4.29-9.58,9.58,0,0-3.51,41.54-6.49,40.05-3.07-1.54-6.5-2.47-10.12-2.66h0s-.04,0-.04,0c-.43-.02-.87-.04-1.3-.04s-6.81-.11-6.81-.11l-.97,51.34,5.53.06c5.26-.16,9.83-.65,13.89-2.72,2.89-1.47,6.31.65,6.31,3.89v36.26c0,5.29,4.29,9.57,9.57,9.57h126.3c5.17,0,9.35-4.19,9.35-9.35v-126.16c0-5.36-4.35-9.71-9.71-9.71Z"></path><path class="cls-23" d="M436.08,375.69v126.16c0,.38-.02.75-.07,1.11-.3,2.51-1.59,4.72-3.47,6.21-1.59,1.27-3.62,2.03-5.81,2.03h-126.3c-5.29,0-9.57-4.29-9.57-9.58v-36.26c0-3.24-3.42-5.36-6.31-3.89-5.05,2.57-11.06,3.53-17.36,2.17-8.52-1.83-17.26-10.39-19.24-18.88-3.93-16.86,8.76-31.86,24.96-31.86,2.48,0,4.88.35,7.15,1.01,1.5.43,2.94,1,4.31,1.68,2.98,1.49,6.49-.68,6.49-4.01v-36.04c0-1.32.27-2.57.75-3.71,1.45-3.45,4.86-5.87,8.83-5.87h38.71c3.33,0,5.26,3.75,3.34,6.47-2.88,4.08-4.6,9.03-4.68,14.38,0,.14,0,.27,0,.41,0,14.64,12.25,26.42,27.07,25.64,1.15-.06,2.27-.2,3.37-.41,11.7-2.2,20.61-12.42,20.91-24.61.11-4.73-1.05-9.18-3.18-13.02-2.2-3.98.7-8.86,5.25-8.86h35.17c5.36,0,9.71,4.35,9.71,9.71Z"></path><g class="cls-113"><path class="cls-83" d="M423.9,511.21h-28.41l-115.45-97.28c1.5.43,2.94,1,4.31,1.68,2.98,1.49,6.49-.68,6.49-4.01v-12.5l133.05,112.11Z"></path><path class="cls-83" d="M436.08,469.65v23.94l-144.48-121.74c1.45-3.45,4.86-5.87,8.83-5.87h12.61l24.75,20.85c0,.14,0,.27,0,.41,0,14.64,12.25,26.42,27.07,25.64,1.15-.06,2.27-.2,3.37-.41l67.85,57.17Z"></path><path class="cls-83" d="M436.01,502.96c-.3,2.51-1.59,4.72-3.47,6.21l-141.68-119.38v-9.14l145.16,122.31Z"></path></g><text class="cls-110" transform="translate(331.17 491.79)"><tspan x="0" y="0">Uplift</tspan></text><g><path class="cls-107" d="M346.87,448.65c-.04-1.19.44-2.16,1.32-2.91,4.72-4.04,9.44-8.06,14.17-12.09.9-.77,1.83-.77,2.71-.02,4.8,4.09,9.62,8.16,14.37,12.31,1.56,1.36,1.55,3.63.2,5.13-1.39,1.54-3.54,1.7-5.26.26-3.19-2.66-6.37-5.35-9.47-8.1-.89-.79-1.43-.84-2.35-.03-3.1,2.76-6.29,5.43-9.46,8.12-1.21,1.02-2.59,1.32-4.06.64-1.38-.64-2.14-1.76-2.18-3.31Z"></path><path class="cls-103" d="M349.42,461.08c-.62-.03-1.11-.37-1.42-1.03-.34-.75-.13-1.4.41-1.91.98-.93,2.01-1.81,3.03-2.69,3.56-3.08,7.15-6.13,10.69-9.24,1.1-.97,2.06-1,3.17-.03,4.41,3.86,8.86,7.67,13.29,11.51,1.18,1.02,1.38,1.99.58,2.81-1.02,1.04-1.96.6-2.89-.2-3.82-3.31-7.69-6.57-11.47-9.93-.9-.8-1.45-.67-2.24.03-3.73,3.27-7.49,6.5-11.24,9.74-.53.46-1.03.97-1.91.95Z"></path></g></g><g><g><path class="cls-11" d="M37.64,543.55s-11.75.75-11.78.75c-1.53-.07-5.37-.6-6.71-.44-5.04.62,8.92,22.66,10.12,17.19.11-.5,2.14-4.02,3.82-4.38,2.59-.56,6.82-.96,6.82-.96l-2.27-12.16Z"></path><path class="cls-108" d="M29.23,561.62c.05-.41-.02-.83-.21-1.22-.71-1.45-2.53-5.22-3.29-7.41-.94-2.74,1.56-6.82.29-8.68-.94-1.38-5.19-1.39-7.87-1.24-1.25.07-2.14,1.08-2,2.29.78,6.92,3.52,28.84,7.39,35.45,1.76,3,4.31-7.84,5.69-19.18Z"></path><polygon class="cls-108" points="8.51 552.73 18.06 544.7 18.75 551.22 10.38 557.63 8.51 552.73"></polygon></g><path class="cls-88" d="M147.14,540.44c-.6-2.47-19.18-19.36-21.35-20.66l-51.36-37.28c-.29,1.09-.66,2.17-1.13,3.22-.08,1.67-.16,3.34-.17,5.02-.03,4.3.12,8.59.35,12.88.6,11.15-8.05,19.88-18.12,22.51,20.75,10.04,39.07,9.83,39.07,9.83l-65.5,6.5c4.74,11.28,4.48,14.71,4.23,18.5,0,0,119.81,3.51,113.98-20.51Z"></path><g><path class="cls-11" d="M50.49,552.88s-11.77-.5-11.79-.51c-1.51-.23-5.27-1.17-6.62-1.15-5.07.08,6.46,23.48,8.23,18.17.16-.48,2.55-3.77,4.26-3.95,2.64-.28,6.89-.22,6.89-.22l-.97-12.33Z"></path><path class="cls-108" d="M40.2,569.95c.09-.4.06-.83-.08-1.24-.55-1.51-1.96-5.46-2.48-7.71-.65-2.83,2.28-6.61,1.21-8.6-.79-1.47-5.01-1.93-7.69-2.07-1.25-.07-2.24.85-2.23,2.06.04,6.96.43,29.05,3.58,36.03,1.43,3.17,5.12-7.34,7.7-18.47Z"></path><polygon class="cls-108" points="20.55 560.77 30.1 552.73 30.79 559.26 22.42 565.67 20.55 560.77"></polygon></g><g><path class="cls-67" d="M139.63,501.25l2.49,3.54s9.74-.66,8.75,10.41c0,0-.74,4.63-3.58,3.83-2.84-.8-1.53-.96-5.58-1.98-4.05-1.02-6.78-4.08-6.44-7.51l-1.14-3.31,5.49-4.98Z"></path><path class="cls-16" d="M139.46,508.23c3.34-1.96,3.7-4.01,3.7-4.01,0,0-22.91-32.91-25.38-35.76-1.68-1.94-18.13-27.67-25.03-42.47-3.42-7.34-10.39-6.84-18.2-6.82l-6.43.02c-7.77.02-12.49,9.54-7.98,16.09,12.7,18.46,35.92,41.76,40.16,46.47,10.54,11.71,32.92,28.42,32.92,28.42,0,0,3.37-.27,6.24-1.95Z"></path></g><path class="cls-100" d="M59.41,472.05l53.45,38.81c1.82,1.09,30.68,17.31,40.97,30.29,2.04,2.58,3.16,7.29,3.38,9.47,2.27,22.41-113.79,18.25-113.79,18.25.25-3.79.51-7.22-4.23-18.5l65.5-6.5s-26.53.32-51.9-17.31c-17.26-11.99-9.63-39.88.45-46.81l6.18-7.7Z"></path><path class="cls-109" d="M92.32,382.51h0s0-.08-.01-.12c-.07-.83-.17-1.64-.28-2.46h0c-.34-2.49-.82-4.88-1.41-7.02-.34-1.22-.71-2.37-1.11-3.4-.06-.16-.12-.31-.18-.46h0c-.96-2.34-2.05-4.02-3.17-4.65-2.04-1.16-4.48-1.28-6.18-1.18.44-.45,1.31-.62,1.31-.62-1.06-.16-3.42.89-3.42.89-14.72-5.67-17.03,16-16.72,21.04.31,5.04-4.95,6.68-12.61,10.65-5.68,2.94-8.36,8.78-9.5,14.81-1.84,9.71.41,19.75,5.84,28,2.03,3.09,13.47,32.55,13.52,32.59.73-1.23-3.06-4.43-1.8-4.78-.05.11.89-.02.35,1.74,28.09,27.01,7.4-4.25,10.13-1.87,0,0-3.36.68-3.35.68,3.66,3.19,1.77-19.13,4.98-16.18-.02-1.01-16.24-22.74-15.87-23.49l.61,3.7.08.48c2.05,1.89,3.67,3.39,4.49,4.16.08.08.16.15.23.21.24.22.37.34.37.34-.12-1.29,1.7-4.34,4.54-8.11.2-.26.4-.53.61-.8.91-1.19,1.92-2.43,3-3.71.39-.46.78-.92,1.18-1.39,0,0,0,0,0,0,.32-.38.65-.75.99-1.13h0c.8-.91,1.62-1.81,2.45-2.72,2.16-2.35,4.42-4.67,6.63-6.77,3.2-3.07,6.29-5.69,8.79-7.33.09-.14.19-.28.27-.43.47-.75.86-1.61,1.2-2.48.1-.26.2-.53.29-.8.98-2.82,1.42-5.69,1.51-6.38-.24,2.83-.62,4.93-1.05,6.5-.09.34-.19.66-.29.95h0c-.22.67-.44,1.21-.65,1.66.43-.39.82-.84,1.18-1.34.24-.32.46-.67.66-1.03,2.46-4.28,2.99-11.14,2.39-17.74Z"></path><path class="cls-11" d="M92.54,418.57c-11.67,2.82-30.77-8.26-30.77-8.26,0,0,11.07-7.19,11.64-23.66l6.76,6.25,5.36,2.75s1.68,6.84.67,11.83c-.26,1.29-.57,2.71-.95,4.27,4.72,3.03,7.28,6.82,7.28,6.82Z"></path><path class="cls-72" d="M89.6,503.97c-8.85-1.51-33.33-14.17-41.59-18.41-1.09-.56,1.67-3.83,2.22-4.87,15.76-29.56-7.52-73.94,15.33-74.77.95-.03,5.61,2.18,10,4.63,4.06,2.27,8.21,2.82,12.18,2.41l3.76,3.58c4.57,4.56,7.06,22.18,5.87,30.94-.61,4.46-1.56,8.6-1.92,12.57-.13,1.47.1-2.52,0,0-.27,6.81-3.15,10.75-2.91,15.94.2,4.13,0-5.64,0,16.85,0,2.59,4.56,12.41-2.94,11.13Z"></path><path class="cls-16" d="M82.79,469.95c-41.04-35.76-13.03-43.99-13.03-43.99,0,0,23.08,16.8,31.52,23.19-.2,2.75-.36,5.39-.46,7.9-.27,6.81-10.32-3.24-10.08,1.95.26,5.51,1.18,19.58,1.67,23.5.63,5.09-6.84-3.59-9.63-12.55Z"></path><path class="cls-19" d="M251.97,502.39l-1.02-35.06c-.1-3.4-2.91-5.8-5.96-5.81h0c-.16,0-.33,0-.49.02l-3.9.18s-7.2,4.16-11.53,4.18c-13.3.07-23.1-9.79-24.19-23.05-1.2-14.74,8.73-27.74,23.33-28.16,4.99-.14,13.25,5.11,13.25,5.11l3.96-.18c2.14-.04,4.09-1.78,4.02-4.21l-1.12-38.58c-.15-5.27-4.55-9.43-9.83-9.27l-35.93,1.04c-3.33.1-5.59-3.34-4.19-6.36,1.62-3.49,2.47-7.4,2.36-11.5-.47-16.15-15.78-28.37-32.48-23.96-8.41,2.22-16.68,11.18-18.27,19.73-1.17,6.31-.05,12.28,2.67,17.24,1.55,2.84-.46,6.31-3.69,6.4l-36.15,1.05c-5.27.15-9.42,4.55-9.27,9.82l3.65,125.91c.15,5.15,4.45,9.2,9.6,9.06l125.77-3.64c5.35-.15,9.56-4.62,9.4-9.96Z"></path><path class="cls-21" d="M238.73,512.52l-116.57,3.38-9.2.27c-3.97.11-7.44-2.27-8.88-5.73-.43-1.03-.68-2.15-.72-3.33l-.26-8.83-.37-12.91-.39-13.32-.98-33.81-1.65-57.04c-.15-5.27,4-9.67,9.27-9.82l33.32-.97,2.83-.08c3.23-.09,5.24-3.56,3.69-6.4-.42-.78-.82-1.58-1.16-2.41-1.85-4.43-2.49-9.5-1.51-14.83,1.58-8.55,9.86-17.51,18.27-19.73,1.54-.41,3.07-.67,4.58-.81,6.83-.6,13.21,1.5,18.13,5.38,1.97,1.55,3.7,3.38,5.15,5.44,1.59,2.27,2.82,4.8,3.61,7.54.59,2.04.94,4.19,1,6.41.07,2.39-.19,4.71-.74,6.92-.39,1.59-.94,3.12-1.62,4.58-1.4,3.02.86,6.45,4.19,6.36l12.43-.36,23.51-.68c5.27-.15,9.67,4,9.82,9.27l1.12,38.59c.1,3.32-3.58,5.35-6.35,3.52-4.25-2.83-9.39-4.41-14.88-4.25-14.6.42-25.98,12.98-24.78,27.72,1.08,13.25,12.34,23.55,25.64,23.48,4.72-.02,9.12-1.31,12.89-3.54,3.9-2.31,8.85.44,8.99,4.97l1.01,35.05c.15,5.35-4.05,9.81-9.4,9.96Z"></path><text class="cls-112" transform="translate(121.24 462.32) rotate(-2.94)"><tspan x="0" y="0">Upskill</tspan></text><g><path class="cls-69" d="M144.07,425.95c-.1-3.85-.18-7.49-.29-11.13-.01-.43.21-.65.52-.85,4.09-2.68,8.19-5.37,12.27-8.06.36-.24.62-.22.97-.01,4.22,2.48,8.44,4.96,12.67,7.42.44.25.55.59.56,1.05.07,3.32.14,6.65.25,9.97.03.9-.25.85-.89.47-3.97-2.35-7.96-4.66-11.92-7.01-.63-.37-1.07-.41-1.71.02-3.74,2.51-7.51,4.96-11.27,7.43-.32.21-.66.4-1.17.71Z"></path><path class="cls-69" d="M144.25,432.51c-.03-1.19-.05-2.39-.1-3.58-.01-.4.24-.56.52-.74,4.03-2.64,8.07-5.28,12.09-7.95.49-.33.84-.31,1.34-.01,4.09,2.42,8.19,4.82,12.31,7.2.58.34.8.73.78,1.37-.02.71.04,1.43.04,2.14,0,.3.19.72-.14.89-.3.15-.59-.18-.85-.33-3.95-2.3-7.9-4.61-11.83-6.95-.64-.38-1.08-.39-1.71.04-3.83,2.57-7.69,5.09-11.54,7.62-.23.15-.44.37-.89.32Z"></path></g><g class="cls-113"><path class="cls-83" d="M211.16,368.42l-89,147.48-9.2.27c-3.97.11-7.44-2.27-8.88-5.73l92.09-152.6c-.39,1.59-.94,3.12-1.62,4.58-1.4,3.02.86,6.45,4.19,6.36l12.43-.36Z"></path><path class="cls-83" d="M187.14,331.54l-84.79,140.51-.98-33.81,40.93-67.83,2.83-.08c3.23-.09,5.24-3.56,3.69-6.4-.42-.78-.82-1.58-1.16-2.41l21.34-35.36c6.83-.6,13.21,1.5,18.13,5.38Z"></path><path class="cls-83" d="M195.9,344.51l-92.8,153.77-.37-12.91,89.56-148.4c1.59,2.27,2.82,4.8,3.61,7.54Z"></path></g><g><ellipse class="cls-10" cx="140.22" cy="511.92" rx="9.05" ry="2.57"></ellipse><path class="cls-11" d="M133.55,503.97l3.39,2.46s9.09-3.2,11.33,6.84c0,0,.63,4.29-2.31,4.35-2.93.06-1.73-.44-5.88-.25-4.15.19-7.63-1.78-8.29-4.9l-2.03-2.61,3.8-5.88Z"></path><path class="cls-72" d="M135.14,510.2c2.43-3.25,3.54-4.72,3.54-4.72,0,0-21.95-31.38-24.29-34.2-1.6-1.92-17.15-22.28-23.51-36.51-3.15-7.06-9.94-11.8-17.65-12.34l-6.35-.44c-7.67-.54-12.62,7.96-8.37,14.37,11.97,18.05,34.18,41.34,38.22,46.02,10.04,11.62,34.12,30.75,34.12,30.75,0,0,2.39-.37,4.3-2.92Z"></path></g><path class="cls-104" d="M86.21,407.49c-10.05-2.25-14.16-12.24-14.16-12.24,0,0,5.17-1.21,8.13-2.34l7.26,6.71s-.22,2.87-1.23,7.87Z"></path><path class="cls-28" d="M73.9,367.95s5.37-5.72,12.11-.29c0,0-3.92-.68-12.11.29Z"></path><path class="cls-77" d="M73.03,389s-3.19-5.04-3.96-9.36c-.55-3.08,1.02-14.49,12.49-12.85,0,0,3.33.33,6.46,2.44,2.49,1.68,6.08,5.31,2.07,15.27l-1.04,3.36-16.01,1.13Z"></path><path class="cls-11" d="M87.39,398.83c-.78,2.17-5.9,3.51-8.06,2.71-3.72-1.38-7.28-1.33-9.67-12.53-5.11-24.02,11.56-21.05,11.56-21.05,0,0,5.12,1.12,7.33,4.57,1.78,2.79,1.44,19.07-1.16,26.3Z"></path><path class="cls-77" d="M80.41,368.46s9.43,3.23,3.32,5.57c-6.11,2.34,1.81.51,1.81.51-10.97,1.36-13.63,10.49-12.82,22.86-4.2,0-11.11-26.71,1.85-30.04,2.69-.69,4.79-1.48,5.85,1.09Z"></path><path class="cls-77" d="M90.21,382.45s-10.31-4.7-11.36-9.43c-1.05-4.72.82-6.38.82-6.38,0,0,3.98,2.21,10.42,4.02,0,0,5.46,10.45.13,11.79Z"></path><path class="cls-16" d="M70.87,413.68s3.66,2.45,11.21,14.9,10.46,15.28,10.46,15.28l-19.84-31.12-1.84.94Z"></path><path class="cls-77" d="M73.64,380.19s-2.22,12.8.8,19.14c0,0-.63-17.84.9-20.23s-1.24-1.28-1.24-1.28l-.46,2.37Z"></path></g><ellipse class="cls-99" cx="528.91" cy="541.29" rx="61.65" ry="6.29"></ellipse></g><g><path class="cls-2" d="M436.41,472.91c-1.26-.61-2.16-1.32-2.79-2.07h0s1.38,4.6,11.05,7.91c9.67,3.31,17.3-.88,17.3-.88-3.24-.96-18.07-1.33-25.56-4.96Z"></path><path class="cls-84" d="M460.75,477c-7.78-5.55-16.13-10.25-24.9-14.04l-1.87-.81s-3.51,4.94-.36,8.68c.63.76,1.53,1.46,2.79,2.07,7.5,3.63,22.32,4,25.56,4.96l-1.22-.87Z"></path><g><path class="cls-84" d="M436.51,475.53c-4.08.08-15.28.91-15.62,4.75-.33,3.84,14.13,7.76,23.87,1.19,3.27-2.21,8.53-5.62,8.53-5.62,0,0-12.59-.41-16.78-.32Z"></path><path class="cls-3" d="M435.3,479.97c-7.85-2.82-14.17-.35-14.25-.32-.09.2-.14.4-.16.62-.3,3.44,11.29,6.94,20.71,2.9-.61-.69-2.23-1.75-6.3-3.21Z"></path></g><g><path class="cls-85" d="M470.79,483.59h-29.6l.78,12.95c.35,5.81,2.35,11.43,5.88,16.06.44.57.87,1.09,1.28,1.52h0c0,.54,3.07.98,6.86.98s6.86-.44,6.86-.98h.02c.42-.44.86-.97,1.31-1.56,3.53-4.65,5.54-10.29,5.87-16.12l.73-12.84Z"></path><ellipse class="cls-68" cx="456" cy="483.59" rx="14.8" ry="2.11"></ellipse><ellipse class="cls-101" cx="455.94" cy="483.59" rx="11.6" ry="1.23"></ellipse><path class="cls-105" d="M456,502.53c-5.64,0-14.04-.58-14.04-2.19,0-.12.1-.21.21-.21s.21.1.21.21c0,.74,5.18,1.76,13.61,1.76s13.61-1.03,13.61-1.76c0-.12.1-.21.21-.21s.21.1.21.21c0,1.6-8.39,2.19-14.04,2.19Z"></path><path class="cls-105" d="M456,500.54c-5.72,0-14.23-.59-14.23-2.22,0-.12.1-.21.21-.21s.21.1.21.21c0,.75,5.25,1.79,13.81,1.79s13.81-1.04,13.81-1.79c0-.12.1-.21.21-.21s.21.1.21.21c0,1.63-8.51,2.22-14.23,2.22Z"></path><g><path class="cls-79" d="M467.1,490.72c0,.27-.22.48-.48.48s-.48-.22-.48-.48.22-.48.48-.48.48.22.48.48Z"></path><path class="cls-79" d="M447.19,488.2c0,.27-.22.48-.48.48s-.48-.22-.48-.48.22-.48.48-.48.48.22.48.48Z"></path><circle class="cls-79" cx="445.31" cy="490.06" r=".48"></circle><path class="cls-79" d="M465.1,488.83c0,.27-.22.48-.48.48s-.48-.22-.48-.48.22-.48.48-.48.48.22.48.48Z"></path><path class="cls-79" d="M467.1,486.57c0,.27-.22.48-.48.48s-.48-.22-.48-.48.22-.48.48-.48.48.22.48.48Z"></path><circle class="cls-79" cx="458.79" cy="487.38" r=".48"></circle><circle class="cls-79" cx="463.05" cy="487.06" r=".48"></circle><path class="cls-79" d="M461.7,489.09c0,.27-.22.48-.48.48s-.48-.22-.48-.48.22-.48.48-.48.48.22.48.48Z"></path><path class="cls-79" d="M458.79,491.02c0,.27-.22.48-.48.48s-.48-.22-.48-.48.22-.48.48-.48.48.22.48.48Z"></path><circle class="cls-79" cx="449.58" cy="491.83" r=".48"></circle><circle class="cls-79" cx="463.53" cy="491.2" r=".48"></circle><circle class="cls-79" cx="469.1" cy="491.89" r=".48"></circle><circle class="cls-79" cx="468.13" cy="488.45" r=".48"></circle><path class="cls-79" d="M470.06,486.57c0,.27-.22.48-.48.48s-.48-.22-.48-.48.22-.48.48-.48.48.22.48.48Z"></path><circle class="cls-79" cx="465.83" cy="493.45" r=".48"></circle><circle class="cls-79" cx="450.65" cy="512.31" r=".48"></circle><path class="cls-79" d="M447.5,508.07c0,.27-.22.48-.48.48s-.48-.22-.48-.48.22-.48.48-.48.48.22.48.48Z"></path><circle class="cls-79" cx="444.03" cy="492.31" r=".48"></circle><circle class="cls-79" cx="442.73" cy="490.32" r=".48"></circle><circle class="cls-79" cx="464.88" cy="508.34" r=".48"></circle><circle class="cls-79" cx="466.31" cy="506.82" r=".48"></circle><circle class="cls-79" cx="463.1" cy="511.53" r=".48"></circle><circle class="cls-79" cx="464.58" cy="510.19" r=".48"></circle><circle class="cls-79" cx="445.7" cy="493.8" r=".48"></circle><circle class="cls-79" cx="443.4" cy="495.07" r=".48"></circle><circle class="cls-79" cx="443.86" cy="487.86" r=".48"></circle><circle class="cls-79" cx="448.15" cy="510.38" r=".48"></circle><path class="cls-79" d="M449.86,508.63c0,.27-.22.48-.48.48s-.48-.22-.48-.48.22-.48.48-.48.48.22.48.48Z"></path><path class="cls-79" d="M451.02,510.19c0,.27-.22.48-.48.48s-.48-.22-.48-.48.22-.48.48-.48.48.22.48.48Z"></path><circle class="cls-79" cx="452.38" cy="508.15" r=".48"></circle><circle class="cls-79" cx="462.73" cy="509.9" r=".48"></circle><path class="cls-79" d="M461.7,512.31c0,.27-.22.48-.48.48s-.48-.22-.48-.48.22-.48.48-.48.48.22.48.48Z"></path></g></g><g><path class="cls-73" d="M465.2,483.7s2.09-14.19,24.78-17.19c0,0-2.6,5.9-4.09,10.76-1.56,5.11-3.34,10.26-10.01,10.26s-10.68-3.84-10.68-3.84Z"></path><path class="cls-2" d="M485.9,477.28c1.49-4.87,4.09-10.76,4.09-10.76-2.59,2.34-5.9,8.97-8.01,12.27-2.59,4.04-7.59,9.26-16.77,4.92,0,0,4.01,3.84,10.68,3.84s8.45-5.16,10.01-10.26Z"></path></g><path class="cls-18" d="M472.96,458.92s7.51,16.02-7.76,24.78c0,0-5.76-2.84-5.51-10.01.25-7.18,11.85-9.6,13.27-14.77Z"></path><path class="cls-3" d="M447.4,457.74s19.37,8.5,12.24,22.01c0,0-9.06,2.19-12.75-6.14-3.7-8.33.52-15.87.52-15.87Z"></path><path class="cls-2" d="M459.64,479.97s-.1-.02-.14-.05c-10.44-8.93-12.29-22.01-12.31-22.15-.02-.12.07-.22.18-.24.11-.02.22.07.24.18.02.13,1.85,13.06,12.16,21.88.09.08.1.21.02.3-.04.05-.1.07-.16.07Z"></path><path class="cls-3" d="M447.6,477.88c-3.63.45-9.43,11.85,0,14.1,9.43,2.25,11.51-13.1,20.28-13.6,0,0-10.26-1.75-20.28-.5Z"></path><path class="cls-2" d="M467.87,478.38c-3.82.22-6.37,3.26-8.82,6.44h10.57s1.47-6.34-1.75-6.44Z"></path><path class="cls-2" d="M447.6,492.19c-.09,0-.17-.06-.2-.14-.07-.21-1.73-5.17.5-9.53,1.29-2.52,3.62-4.3,6.92-5.3.11-.03.23.03.27.14.03.11-.03.23-.14.27-3.19.96-5.43,2.67-6.67,5.08-2.15,4.2-.5,9.15-.48,9.2.04.11-.02.23-.13.27-.02,0-.05.01-.07.01Z"></path><g><path class="cls-3" d="M465.83,484.78s7.76-9.61,22.2-6.86c0,0,1.41,16.26-15.1,9.93l-7.09-3.07Z"></path><path class="cls-2" d="M465.83,484.99c-.07,0-.13-.03-.17-.09-.07-.1-.05-.23.05-.3.14-.1,3.58-2.47,10.52-.88,6.33,1.45,10.28-3.02,11.61-5.89.05-.11.18-.15.28-.1.11.05.15.18.1.28-1.39,2.99-5.49,7.63-12.09,6.13-6.74-1.54-10.14.79-10.18.81-.04.03-.08.04-.12.04Z"></path></g></g></g><path class="cls-26" d="M162.47,161.8c-3.08,8.36-6.35,12.85-8.7,12.21-2.1-.56-2.61-5.91-1.59-13.28l10.29,1.07Z"></path><path class="cls-81" d="M152.23,558c.3,2.82-8.12,8.49-42.74,12.17s-82.34,3.97-82.64,1.16,27.52-8.08,62.15-11.76,62.93-4.38,63.23-1.57Z"></path><path class="cls-77" d="M84.44,379.27s1.23,1.39.47,5.78c0,0,1.42-3.34,1.32-5.26s-1.79-1.52-1.79-1.52v.99Z"></path><g id="OrXbM3.tif"><g><path class="cls-29" d="M121.24,58.28s0-.04,0-.05c.02-.1.08-.18.17-.22.17-.08.35-.16.52-.24.08-.04.17-.08.25-.12.17-.08.3-.2.38-.37.04-.07.07-.15.1-.23.07-.17.14-.34.22-.51.11-.25.21-.5.32-.75.04-.1.12-.15.22-.17.11-.02.2,0,.28.09.04.04.06.08.08.13.11.25.21.51.32.76.09.21.17.41.26.62.09.21.23.36.44.45.13.06.26.12.39.18.12.05.23.1.35.16.12.05.19.17.18.29,0,.13-.07.22-.18.27-.19.09-.39.17-.58.26-.08.04-.16.07-.23.11-.15.08-.26.19-.33.34-.05.1-.09.21-.14.32-.1.25-.21.49-.31.74-.06.14-.12.29-.18.43-.04.1-.13.16-.24.18,0,0,0,0,0,0-.02,0-.05,0-.07,0,0,0,0,0,0,0-.11-.02-.19-.08-.24-.18-.13-.29-.25-.59-.37-.88-.08-.18-.15-.36-.23-.54-.06-.14-.14-.25-.26-.34-.06-.05-.14-.08-.21-.12-.24-.11-.47-.21-.71-.32-.1-.04-.15-.12-.17-.22,0-.02,0-.04,0-.06h0Z"></path><path class="cls-20" d="M125.81,60.96s-.02,0-.03-.01c-.02-.01-.04-.03-.05-.05-.06-.14-.13-.29-.19-.43-.02-.06-.06-.11-.11-.14-.03-.02-.07-.03-.11-.05-.06-.03-.12-.05-.18-.08-.04-.02-.06-.05-.06-.09,0-.04.02-.07.06-.09.08-.03.16-.07.24-.1.08-.03.13-.1.17-.18.06-.14.12-.28.18-.42.02-.04.05-.06.1-.06.05,0,.08.02.09.07.07.15.13.3.2.45.03.06.08.11.14.14.08.03.16.07.24.1.03.01.06.04.07.07.01.05-.01.1-.06.12-.08.04-.17.07-.25.11-.06.03-.11.07-.14.13-.06.13-.11.26-.17.39,0,.02-.02.04-.03.07-.01.03-.04.05-.08.06,0,0,0,0,0,0-.01,0-.02,0-.03,0Z"></path><path class="cls-27" d="M123.45,60.96s0,0,0,0c0,0,0,0,0,0,.02,0,.05,0,.07,0,0,0,0,0,0,0-.02,0-.05,0-.07,0Z"></path><path class="cls-55" d="M125.29,57s.03-.08.08-.11c.1-.05.21-.1.31-.14.09-.04.16-.11.2-.21.08-.2.17-.4.25-.61.02-.05.06-.08.12-.08.05,0,.09.02.12.07.02.04.03.08.05.11.07.18.15.35.22.53.03.08.09.14.17.18.1.05.21.1.31.15.04.02.08.05.09.1.01.06-.01.13-.07.16-.08.04-.17.08-.26.12-.04.02-.09.04-.13.07-.06.04-.1.1-.13.17-.08.2-.16.4-.24.6-.02.04-.04.07-.08.09-.07.03-.14,0-.17-.08-.04-.11-.09-.22-.13-.32-.04-.1-.08-.19-.12-.29-.04-.1-.11-.17-.21-.22-.1-.04-.2-.09-.29-.14-.05-.02-.08-.07-.08-.14Z"></path></g></g><g id="OrXbM3.tif-2" data-name="OrXbM3.tif"><g><path class="cls-56" d="M236.67,77.1s0-.04,0-.05c.02-.1.08-.18.17-.22.17-.08.35-.16.52-.24.08-.04.17-.08.25-.12.17-.08.3-.2.38-.37.04-.07.07-.15.1-.23.07-.17.14-.34.22-.51.11-.25.21-.5.32-.75.04-.1.12-.15.22-.17.11-.02.2,0,.28.09.04.04.06.08.08.13.11.25.21.51.32.76.09.21.17.41.26.62.09.21.23.36.44.45.13.06.26.12.39.18.12.05.23.1.35.16.12.05.19.17.18.29,0,.13-.07.22-.18.27-.19.09-.39.17-.58.26-.08.04-.16.07-.23.11-.15.08-.26.19-.33.34-.05.1-.09.21-.14.32-.1.25-.21.49-.31.74-.06.14-.12.29-.18.43-.04.1-.13.16-.24.18,0,0,0,0,0,0-.02,0-.05,0-.07,0,0,0,0,0,0,0-.11-.02-.19-.08-.24-.18-.13-.29-.25-.59-.37-.88-.08-.18-.15-.36-.23-.54-.06-.14-.14-.25-.26-.34-.06-.05-.14-.08-.21-.12-.24-.11-.47-.21-.71-.32-.1-.04-.15-.12-.17-.22,0-.02,0-.04,0-.06h0Z"></path><path class="cls-53" d="M241.24,79.77s-.02,0-.03-.01c-.02-.01-.04-.03-.05-.05-.06-.14-.13-.29-.19-.43-.02-.06-.06-.11-.11-.14-.03-.02-.07-.03-.11-.05-.06-.03-.12-.05-.18-.08-.04-.02-.06-.05-.06-.09,0-.04.02-.07.06-.09.08-.03.16-.07.24-.1.08-.03.13-.1.17-.18.06-.14.12-.28.18-.42.02-.04.05-.06.1-.06.05,0,.08.02.09.07.07.15.13.3.2.45.03.06.08.11.14.14.08.03.16.07.24.1.03.01.06.04.07.07.01.05-.01.1-.06.12-.08.04-.17.07-.25.11-.06.03-.11.07-.14.13-.06.13-.11.26-.17.39,0,.02-.02.04-.03.07-.01.03-.04.05-.08.06,0,0,0,0,0,0-.01,0-.02,0-.03,0Z"></path><path class="cls-54" d="M238.88,79.77s0,0,0,0c0,0,0,0,0,0,.02,0,.05,0,.07,0,0,0,0,0,0,0-.02,0-.05,0-.07,0Z"></path><path class="cls-49" d="M240.72,75.81s.03-.08.08-.11c.1-.05.21-.1.31-.14.09-.04.16-.11.2-.21.08-.2.17-.4.25-.61.02-.05.06-.08.12-.08.05,0,.09.02.12.07.02.04.03.08.05.11.07.18.15.35.22.53.03.08.09.14.17.18.1.05.21.1.31.15.04.02.08.05.09.1.01.06-.01.13-.07.16-.08.04-.17.08-.26.12-.04.02-.09.04-.13.07-.06.04-.1.1-.13.17-.08.2-.16.4-.24.6-.02.04-.04.07-.08.09-.07.03-.14,0-.17-.08-.04-.11-.09-.22-.13-.32-.04-.1-.08-.19-.12-.29-.04-.1-.11-.17-.21-.22-.1-.04-.2-.09-.29-.14-.05-.02-.08-.07-.08-.14Z"></path></g></g><g id="OrXbM3.tif-3" data-name="OrXbM3.tif"><g><path class="cls-47" d="M276.48,129.3s.01-.09.02-.13c.05-.25.2-.44.43-.55.43-.2.87-.39,1.3-.59.21-.1.42-.19.63-.29.42-.2.74-.51.95-.93.09-.18.16-.38.24-.57.18-.43.36-.86.54-1.28.26-.62.52-1.25.79-1.87.1-.24.29-.38.55-.43.27-.05.5.02.69.22.09.09.14.21.19.33.27.64.54,1.27.81,1.9.22.52.44,1.03.65,1.55.22.52.58.89,1.1,1.12.33.14.66.3.99.45.29.13.58.26.87.39.29.13.47.42.45.74-.02.31-.17.55-.46.68-.48.22-.97.44-1.45.66-.2.09-.4.17-.59.27-.37.2-.64.49-.83.86-.13.26-.23.53-.34.8-.26.61-.52,1.23-.78,1.84-.15.36-.3.73-.46,1.08-.11.25-.32.4-.59.44,0,0-.01,0-.02,0-.06,0-.11,0-.17,0,0,0-.01,0-.02,0-.28-.04-.48-.19-.59-.44-.32-.73-.62-1.47-.94-2.21-.19-.45-.38-.9-.57-1.36-.14-.34-.35-.62-.65-.85-.16-.13-.35-.21-.53-.3-.59-.27-1.18-.53-1.77-.8-.24-.11-.38-.3-.44-.55-.01-.05,0-.1-.02-.15v-.03Z"></path><path class="cls-48" d="M258.14,161.73s-.06-.02-.08-.03c-.05-.03-.09-.07-.11-.12-.16-.36-.32-.72-.47-1.07-.06-.14-.14-.27-.28-.35-.09-.05-.18-.08-.27-.12-.15-.07-.3-.13-.45-.2-.1-.04-.16-.12-.15-.23,0-.11.06-.18.16-.23.2-.09.39-.17.59-.26.21-.09.33-.24.42-.45.15-.35.3-.7.46-1.05.05-.11.13-.16.24-.16.11,0,.19.06.24.16.17.38.33.76.5,1.14.07.16.19.27.35.34.2.08.4.17.6.26.08.04.15.09.17.18.03.12-.03.24-.15.29-.21.09-.42.18-.63.27-.15.07-.27.18-.34.33-.15.32-.29.65-.43.97-.02.06-.05.11-.07.17-.04.08-.1.14-.19.15,0,0,0,0,0,0-.03,0-.05,0-.08,0Z"></path><path class="cls-52" d="M254.09,165.28s0,0,0,0c0,0,0,0,0,0,.06,0,.11,0,.17,0,0,0,0,0,0,0-.06,0-.12,0-.18,0Z"></path><path class="cls-50" d="M258.71,155.37c0-.1.07-.21.2-.27.26-.12.52-.24.78-.36.24-.11.4-.29.49-.53.21-.51.42-1.01.63-1.52.05-.13.15-.21.3-.21.13,0,.23.05.29.17.05.09.08.19.12.29.18.44.36.89.55,1.33.09.21.23.36.44.46.26.12.52.24.78.36.11.05.19.13.22.25.04.16-.03.32-.18.39-.21.1-.43.2-.64.3-.11.05-.22.1-.32.17-.15.11-.25.25-.32.42-.2.5-.41.99-.61,1.49-.04.1-.1.18-.21.22-.17.06-.35-.02-.42-.19-.11-.27-.22-.54-.33-.81-.1-.24-.2-.48-.3-.72-.1-.26-.28-.43-.54-.54-.25-.11-.49-.23-.74-.34-.12-.06-.19-.17-.19-.35Z"></path></g></g><path class="cls-51" d="M112.2,160.48s-.06-.02-.08-.03c-.05-.03-.09-.07-.11-.12-.16-.36-.32-.72-.47-1.07-.06-.14-.14-.27-.28-.35-.09-.05-.18-.08-.27-.12-.15-.07-.3-.13-.45-.2-.1-.04-.16-.12-.15-.23,0-.11.06-.18.16-.23.2-.09.39-.17.59-.26.21-.09.33-.24.42-.45.15-.35.3-.7.46-1.05.05-.11.13-.16.24-.16.11,0,.19.06.24.16.17.38.33.76.5,1.14.07.16.19.27.35.34.2.08.4.17.6.26.08.04.15.09.17.18.03.12-.03.24-.15.29-.21.09-.42.18-.63.27-.15.07-.27.18-.34.33-.15.32-.29.65-.43.97-.02.06-.05.11-.07.17-.04.08-.1.14-.19.15,0,0,0,0,0,0-.03,0-.05,0-.08,0Z"></path><path class="cls-61" d="M107.19,162.87s-.06-.02-.08-.03c-.05-.03-.09-.07-.11-.12-.16-.36-.32-.72-.47-1.07-.06-.14-.14-.27-.28-.35-.09-.05-.18-.08-.27-.12-.15-.07-.3-.13-.45-.2-.1-.04-.16-.12-.15-.23,0-.11.06-.18.16-.23.2-.09.39-.17.59-.26.21-.09.33-.24.42-.45.15-.35.3-.7.46-1.05.05-.11.13-.16.24-.16.11,0,.19.06.24.16.17.38.33.76.5,1.14.07.16.19.27.35.34.2.08.4.17.6.26.08.04.15.09.17.18.03.12-.03.24-.15.29-.21.09-.42.18-.63.27-.15.07-.27.18-.34.33-.15.32-.29.65-.43.97-.02.06-.05.11-.07.17-.04.08-.1.14-.19.15,0,0,0,0,0,0-.03,0-.05,0-.08,0Z"></path><path class="cls-59" d="M85.99,109.26s-.06-.02-.08-.03c-.05-.03-.09-.07-.11-.12-.16-.36-.32-.72-.47-1.07-.06-.14-.14-.27-.28-.35-.09-.05-.18-.08-.27-.12-.15-.07-.3-.13-.45-.2-.1-.04-.16-.12-.15-.23,0-.11.06-.18.16-.23.2-.09.39-.17.59-.26.21-.09.33-.24.42-.45.15-.35.3-.7.46-1.05.05-.11.13-.16.24-.16.11,0,.19.06.24.16.17.38.33.76.5,1.14.07.16.19.27.35.34.2.08.4.17.6.26.08.04.15.09.17.18.03.12-.03.24-.15.29-.21.09-.42.18-.63.27-.15.07-.27.18-.34.33-.15.32-.29.65-.43.97-.02.06-.05.11-.07.17-.04.08-.1.14-.19.15,0,0,0,0,0,0-.03,0-.05,0-.08,0Z"></path><path class="cls-60" d="M200.55,46.66s0-.05.01-.07c.03-.14.11-.24.23-.3.23-.11.47-.21.7-.32.11-.05.23-.1.34-.16.23-.11.4-.28.51-.5.05-.1.09-.2.13-.31.1-.23.2-.46.29-.69.14-.34.28-.67.43-1.01.06-.13.16-.21.3-.23.14-.03.27.01.38.12.05.05.08.11.11.18.14.34.29.69.44,1.03.12.28.24.56.35.84.12.28.31.48.59.6.18.08.36.16.53.24.16.07.31.14.47.21.16.07.25.23.24.4,0,.17-.09.29-.25.37-.26.12-.52.24-.78.36-.11.05-.21.09-.32.15-.2.11-.35.26-.45.47-.07.14-.13.29-.19.43-.14.33-.28.66-.42,1-.08.2-.16.39-.25.59-.06.14-.17.21-.32.24,0,0,0,0,0,0-.03,0-.06,0-.09,0,0,0,0,0,0,0-.15-.02-.26-.1-.32-.24-.17-.4-.34-.8-.51-1.2-.1-.24-.21-.49-.31-.73-.08-.18-.19-.34-.35-.46-.09-.07-.19-.11-.29-.16-.32-.14-.64-.29-.96-.43-.13-.06-.21-.16-.24-.3,0-.03,0-.05-.01-.08v-.02Z"></path><path class="cls-58" d="M199.48,50.27s0-.02,0-.03c0-.05.04-.08.08-.1.08-.04.16-.07.25-.11.04-.02.08-.04.12-.05.08-.04.14-.1.18-.18.02-.03.03-.07.05-.11.03-.08.07-.16.1-.24.05-.12.1-.24.15-.35.02-.05.06-.07.1-.08.05,0,.1,0,.13.04.02.02.03.04.04.06.05.12.1.24.15.36.04.1.08.2.12.29.04.1.11.17.21.21.06.03.13.06.19.08.05.02.11.05.16.07.06.03.09.08.09.14,0,.06-.03.1-.09.13-.09.04-.18.08-.28.12-.04.02-.08.03-.11.05-.07.04-.12.09-.16.16-.02.05-.04.1-.07.15-.05.12-.1.23-.15.35-.03.07-.06.14-.09.21-.02.05-.06.08-.11.08,0,0,0,0,0,0-.01,0-.02,0-.03,0,0,0,0,0,0,0-.05,0-.09-.04-.11-.08-.06-.14-.12-.28-.18-.42-.04-.09-.07-.17-.11-.26-.03-.06-.07-.12-.12-.16-.03-.02-.07-.04-.1-.06-.11-.05-.22-.1-.34-.15-.05-.02-.07-.06-.08-.1,0,0,0-.02,0-.03h0Z"></path><path class="cls-62" d="M179.57,69.24s0-.02,0-.03c.01-.07.05-.12.11-.15.11-.05.23-.1.34-.16.06-.03.11-.05.17-.08.11-.05.2-.14.25-.25.02-.05.04-.1.06-.15.05-.11.1-.23.14-.34.07-.16.14-.33.21-.49.03-.06.08-.1.14-.11.07-.01.13,0,.18.06.02.02.04.06.05.09.07.17.14.34.21.5.06.14.12.27.17.41.06.14.15.24.29.3.09.04.17.08.26.12.08.03.15.07.23.1.08.04.12.11.12.2,0,.08-.04.14-.12.18-.13.06-.26.12-.38.17-.05.02-.1.04-.15.07-.1.05-.17.13-.22.23-.03.07-.06.14-.09.21-.07.16-.14.32-.21.49-.04.1-.08.19-.12.29-.03.07-.08.11-.16.12,0,0,0,0,0,0-.02,0-.03,0-.05,0,0,0,0,0,0,0-.07-.01-.13-.05-.16-.12-.08-.19-.17-.39-.25-.58-.05-.12-.1-.24-.15-.36-.04-.09-.09-.16-.17-.22-.04-.03-.09-.06-.14-.08-.16-.07-.31-.14-.47-.21-.06-.03-.1-.08-.12-.15,0-.01,0-.03,0-.04h0Z"></path><path class="cls-57" d="M179.05,71.01s0,0,0-.01c0-.02.02-.04.04-.05.04-.02.08-.04.12-.05.02,0,.04-.02.06-.03.04-.02.07-.05.09-.09,0-.02.02-.03.02-.05.02-.04.03-.08.05-.12.02-.06.05-.12.07-.17,0-.02.03-.04.05-.04.02,0,.05,0,.06.02,0,0,.01.02.02.03.02.06.05.12.07.18.02.05.04.1.06.14.02.05.05.08.1.1.03.01.06.03.09.04.03.01.05.02.08.04.03.01.04.04.04.07,0,.03-.02.05-.04.06-.04.02-.09.04-.13.06-.02,0-.04.02-.05.03-.03.02-.06.05-.08.08-.01.02-.02.05-.03.07-.02.06-.05.11-.07.17-.01.03-.03.07-.04.1-.01.02-.03.04-.05.04,0,0,0,0,0,0,0,0-.01,0-.02,0,0,0,0,0,0,0-.03,0-.04-.02-.05-.04-.03-.07-.06-.14-.09-.21-.02-.04-.04-.08-.05-.13-.01-.03-.03-.06-.06-.08-.02-.01-.03-.02-.05-.03-.05-.02-.11-.05-.16-.07-.02-.01-.04-.03-.04-.05,0,0,0,0,0-.01h0Z"></path></g></g></svg>